<mxfile host="app.diagrams.net" modified="2020-12-14T14:56:20.726Z" agent="5.0 (Macintosh)" etag="BhnLn_nCiFRNA9xdlDZH" version="14.0.1" type="github">
  <diagram id="cRWcEtq89UXYhEaKIMPA" name="Page-1">
    <mxGraphModel dx="1113" dy="1870" grid="1" gridSize="10" guides="1" tooltips="1" connect="1" arrows="1" fold="1" page="1" pageScale="1" pageWidth="827" pageHeight="583" math="0" shadow="0">
      <root>
        <mxCell id="0" />
        <mxCell id="1" parent="0" />
        <mxCell id="aZHZSerqJfOUwA4PFhIk-41" value="" style="rounded=0;whiteSpace=wrap;html=1;verticalAlign=top;" parent="1" vertex="1">
          <mxGeometry x="238.75" y="210" width="650" height="406" as="geometry" />
        </mxCell>
        <mxCell id="aZHZSerqJfOUwA4PFhIk-1" value="" style="rounded=0;whiteSpace=wrap;html=1;verticalAlign=top;" parent="1" vertex="1">
          <mxGeometry x="238.75" y="-970" width="670" height="500" as="geometry" />
        </mxCell>
        <mxCell id="aZHZSerqJfOUwA4PFhIk-2" value="&lt;div&gt;Jira Testsuite 1&lt;br&gt;&lt;/div&gt;&lt;div&gt;&lt;br&gt;&lt;/div&gt;" style="rounded=0;whiteSpace=wrap;html=1;verticalAlign=top;" parent="1" vertex="1">
          <mxGeometry x="268.75" y="-890" width="210" height="390" as="geometry" />
        </mxCell>
        <mxCell id="aZHZSerqJfOUwA4PFhIk-3" value="Test 1" style="rounded=0;whiteSpace=wrap;html=1;" parent="1" vertex="1">
          <mxGeometry x="318.75" y="-860" width="120" height="60" as="geometry" />
        </mxCell>
        <mxCell id="aZHZSerqJfOUwA4PFhIk-4" value="&lt;div&gt;Test 2&lt;br&gt;&lt;/div&gt;" style="rounded=0;whiteSpace=wrap;html=1;" parent="1" vertex="1">
          <mxGeometry x="318.75" y="-790" width="120" height="60" as="geometry" />
        </mxCell>
        <mxCell id="aZHZSerqJfOUwA4PFhIk-5" value="Test 3" style="rounded=0;whiteSpace=wrap;html=1;" parent="1" vertex="1">
          <mxGeometry x="318.75" y="-720" width="120" height="60" as="geometry" />
        </mxCell>
        <mxCell id="aZHZSerqJfOUwA4PFhIk-6" value="Test ..." style="rounded=0;whiteSpace=wrap;html=1;" parent="1" vertex="1">
          <mxGeometry x="318.75" y="-650" width="120" height="60" as="geometry" />
        </mxCell>
        <mxCell id="aZHZSerqJfOUwA4PFhIk-7" value="Jira Testsuite 2" style="rounded=0;whiteSpace=wrap;html=1;verticalAlign=top;" parent="1" vertex="1">
          <mxGeometry x="493.75" y="-890" width="185" height="390" as="geometry" />
        </mxCell>
        <mxCell id="aZHZSerqJfOUwA4PFhIk-8" value="Test n" style="rounded=0;whiteSpace=wrap;html=1;" parent="1" vertex="1">
          <mxGeometry x="318.75" y="-580" width="120" height="60" as="geometry" />
        </mxCell>
        <mxCell id="aZHZSerqJfOUwA4PFhIk-9" value="Jira Testsuite ..." style="rounded=0;whiteSpace=wrap;html=1;verticalAlign=top;" parent="1" vertex="1">
          <mxGeometry x="698.75" y="-890" width="180" height="390" as="geometry" />
        </mxCell>
        <mxCell id="aZHZSerqJfOUwA4PFhIk-10" value="" style="rounded=0;whiteSpace=wrap;html=1;verticalAlign=top;" parent="1" vertex="1">
          <mxGeometry x="220" y="-460" width="687.5" height="650" as="geometry" />
        </mxCell>
        <mxCell id="aZHZSerqJfOUwA4PFhIk-11" value="&lt;div&gt;test-domain1-testsuitname 1&lt;br&gt;&lt;/div&gt;&lt;div&gt;&lt;br&gt;&lt;/div&gt;" style="rounded=0;whiteSpace=wrap;html=1;verticalAlign=top;" parent="1" vertex="1">
          <mxGeometry x="250" y="-370" width="207.5" height="240" as="geometry" />
        </mxCell>
        <mxCell id="aZHZSerqJfOUwA4PFhIk-12" value="Test 1" style="rounded=0;whiteSpace=wrap;html=1;" parent="1" vertex="1">
          <mxGeometry x="293.75" y="-350" width="120" height="60" as="geometry" />
        </mxCell>
        <mxCell id="aZHZSerqJfOUwA4PFhIk-13" value="&lt;div&gt;Test 2&lt;br&gt;&lt;/div&gt;" style="rounded=0;whiteSpace=wrap;html=1;" parent="1" vertex="1">
          <mxGeometry x="293.75" y="-280" width="120" height="60" as="geometry" />
        </mxCell>
        <mxCell id="aZHZSerqJfOUwA4PFhIk-14" value="Test ..." style="rounded=0;whiteSpace=wrap;html=1;" parent="1" vertex="1">
          <mxGeometry x="293.75" y="-210" width="120" height="60" as="geometry" />
        </mxCell>
        <mxCell id="aZHZSerqJfOUwA4PFhIk-17" value="&lt;div&gt;test-domain1-testsuitname 2&lt;/div&gt;&lt;div&gt;&lt;br&gt;&lt;/div&gt;" style="rounded=0;whiteSpace=wrap;html=1;verticalAlign=top;" parent="1" vertex="1">
          <mxGeometry x="476.25" y="-380" width="205" height="140" as="geometry" />
        </mxCell>
        <mxCell id="aZHZSerqJfOUwA4PFhIk-18" value="test-domain1-testsuitname n" style="rounded=0;whiteSpace=wrap;html=1;verticalAlign=top;" parent="1" vertex="1">
          <mxGeometry x="696.25" y="-380" width="181" height="380" as="geometry" />
        </mxCell>
        <mxCell id="aZHZSerqJfOUwA4PFhIk-20" value="" style="shape=flexArrow;endArrow=classic;html=1;entryX=0.5;entryY=0;entryDx=0;entryDy=0;exitX=0.424;exitY=1.008;exitDx=0;exitDy=0;exitPerimeter=0;" parent="1" source="aZHZSerqJfOUwA4PFhIk-2" target="aZHZSerqJfOUwA4PFhIk-11" edge="1">
          <mxGeometry width="50" height="50" relative="1" as="geometry">
            <mxPoint x="353.75" y="-380" as="sourcePoint" />
            <mxPoint x="403.75" y="-430" as="targetPoint" />
          </mxGeometry>
        </mxCell>
        <mxCell id="aZHZSerqJfOUwA4PFhIk-21" value="" style="shape=flexArrow;endArrow=classic;html=1;exitX=0.5;exitY=1;exitDx=0;exitDy=0;" parent="1" source="aZHZSerqJfOUwA4PFhIk-7" target="aZHZSerqJfOUwA4PFhIk-17" edge="1">
          <mxGeometry width="50" height="50" relative="1" as="geometry">
            <mxPoint x="548.75" y="-260" as="sourcePoint" />
            <mxPoint x="598.75" y="-310" as="targetPoint" />
          </mxGeometry>
        </mxCell>
        <mxCell id="aZHZSerqJfOUwA4PFhIk-22" value="" style="shape=flexArrow;endArrow=classic;html=1;exitX=0.5;exitY=1;exitDx=0;exitDy=0;entryX=0.5;entryY=0;entryDx=0;entryDy=0;" parent="1" source="aZHZSerqJfOUwA4PFhIk-9" target="aZHZSerqJfOUwA4PFhIk-18" edge="1">
          <mxGeometry width="50" height="50" relative="1" as="geometry">
            <mxPoint x="548.75" y="-260" as="sourcePoint" />
            <mxPoint x="598.75" y="-310" as="targetPoint" />
          </mxGeometry>
        </mxCell>
        <mxCell id="aZHZSerqJfOUwA4PFhIk-23" value="Automation" style="shape=note;whiteSpace=wrap;html=1;backgroundOutline=1;darkOpacity=0.05;" parent="1" vertex="1">
          <mxGeometry x="991.25" y="-520" width="80" height="100" as="geometry" />
        </mxCell>
        <mxCell id="aZHZSerqJfOUwA4PFhIk-24" value="Writing Scenarios" style="shape=note;whiteSpace=wrap;html=1;backgroundOutline=1;darkOpacity=0.05;" parent="1" vertex="1">
          <mxGeometry x="221.25" y="-1130" width="80" height="100" as="geometry" />
        </mxCell>
        <mxCell id="aZHZSerqJfOUwA4PFhIk-25" value="" style="shape=flexArrow;endArrow=classic;html=1;exitX=0.813;exitY=1.09;exitDx=0;exitDy=0;exitPerimeter=0;" parent="1" source="aZHZSerqJfOUwA4PFhIk-24" target="aZHZSerqJfOUwA4PFhIk-1" edge="1">
          <mxGeometry width="50" height="50" relative="1" as="geometry">
            <mxPoint x="578.75" y="-650" as="sourcePoint" />
            <mxPoint x="628.75" y="-700" as="targetPoint" />
          </mxGeometry>
        </mxCell>
        <mxCell id="aZHZSerqJfOUwA4PFhIk-26" value="" style="shape=flexArrow;endArrow=classic;html=1;exitX=1;exitY=0.75;exitDx=0;exitDy=0;entryX=0.5;entryY=0;entryDx=0;entryDy=0;entryPerimeter=0;" parent="1" source="aZHZSerqJfOUwA4PFhIk-1" target="aZHZSerqJfOUwA4PFhIk-23" edge="1">
          <mxGeometry width="50" height="50" relative="1" as="geometry">
            <mxPoint x="558.75" y="-640" as="sourcePoint" />
            <mxPoint x="608.75" y="-690" as="targetPoint" />
          </mxGeometry>
        </mxCell>
        <mxCell id="aZHZSerqJfOUwA4PFhIk-27" value="" style="shape=flexArrow;endArrow=classic;html=1;exitX=0.5;exitY=1;exitDx=0;exitDy=0;exitPerimeter=0;entryX=1;entryY=0.25;entryDx=0;entryDy=0;" parent="1" source="aZHZSerqJfOUwA4PFhIk-23" target="aZHZSerqJfOUwA4PFhIk-10" edge="1">
          <mxGeometry width="50" height="50" relative="1" as="geometry">
            <mxPoint x="558.75" y="-400" as="sourcePoint" />
            <mxPoint x="608.75" y="-450" as="targetPoint" />
          </mxGeometry>
        </mxCell>
        <mxCell id="aZHZSerqJfOUwA4PFhIk-28" value="&lt;div&gt;CI integration&lt;br&gt;&lt;/div&gt;" style="shape=note;whiteSpace=wrap;html=1;backgroundOutline=1;darkOpacity=0.05;" parent="1" vertex="1">
          <mxGeometry x="971.25" y="42" width="80" height="100" as="geometry" />
        </mxCell>
        <mxCell id="aZHZSerqJfOUwA4PFhIk-29" value="" style="shape=flexArrow;endArrow=classic;html=1;exitX=1.009;exitY=0.707;exitDx=0;exitDy=0;exitPerimeter=0;" parent="1" source="aZHZSerqJfOUwA4PFhIk-10" target="aZHZSerqJfOUwA4PFhIk-28" edge="1">
          <mxGeometry width="50" height="50" relative="1" as="geometry">
            <mxPoint x="558.75" y="20" as="sourcePoint" />
            <mxPoint x="938.75" y="84.28571428571468" as="targetPoint" />
          </mxGeometry>
        </mxCell>
        <mxCell id="aZHZSerqJfOUwA4PFhIk-32" value="" style="shape=flexArrow;endArrow=classic;html=1;entryX=1.001;entryY=0.064;entryDx=0;entryDy=0;entryPerimeter=0;" parent="1" source="aZHZSerqJfOUwA4PFhIk-28" target="aZHZSerqJfOUwA4PFhIk-41" edge="1">
          <mxGeometry width="50" height="50" relative="1" as="geometry">
            <mxPoint x="931.25" y="210" as="sourcePoint" />
            <mxPoint x="871.8899999999994" y="246.3199999999997" as="targetPoint" />
          </mxGeometry>
        </mxCell>
        <mxCell id="aZHZSerqJfOUwA4PFhIk-36" value="Producing reports as artifacts" style="shape=note;whiteSpace=wrap;html=1;backgroundOutline=1;darkOpacity=0.05;" parent="1" vertex="1">
          <mxGeometry x="961.25" y="493" width="80" height="100" as="geometry" />
        </mxCell>
        <mxCell id="aZHZSerqJfOUwA4PFhIk-37" value="" style="shape=flexArrow;endArrow=classic;html=1;entryX=0;entryY=0.5;entryDx=0;entryDy=0;entryPerimeter=0;exitX=1.002;exitY=0.827;exitDx=0;exitDy=0;exitPerimeter=0;" parent="1" target="aZHZSerqJfOUwA4PFhIk-36" edge="1" source="aZHZSerqJfOUwA4PFhIk-41">
          <mxGeometry width="50" height="50" relative="1" as="geometry">
            <mxPoint x="895.25" y="470" as="sourcePoint" />
            <mxPoint x="841.25" y="460" as="targetPoint" />
          </mxGeometry>
        </mxCell>
        <mxCell id="aZHZSerqJfOUwA4PFhIk-34" value="pipeline 2" style="rounded=0;whiteSpace=wrap;html=1;" parent="1" vertex="1">
          <mxGeometry x="518.75" y="278" width="120" height="60" as="geometry" />
        </mxCell>
        <mxCell id="aZHZSerqJfOUwA4PFhIk-35" value="&lt;div&gt;pipeline ...&lt;/div&gt;" style="rounded=0;whiteSpace=wrap;html=1;" parent="1" vertex="1">
          <mxGeometry x="741.25" y="278" width="120" height="60" as="geometry" />
        </mxCell>
        <mxCell id="aZHZSerqJfOUwA4PFhIk-31" value="pipeline 1" style="rounded=0;whiteSpace=wrap;html=1;" parent="1" vertex="1">
          <mxGeometry x="293.75" y="278" width="120" height="60" as="geometry" />
        </mxCell>
        <mxCell id="aZHZSerqJfOUwA4PFhIk-38" value="" style="shape=flexArrow;endArrow=classic;html=1;exitX=0.5;exitY=1;exitDx=0;exitDy=0;" parent="1" source="w9n8-tRTK-V_4dh_BGKR-1" target="aZHZSerqJfOUwA4PFhIk-31" edge="1">
          <mxGeometry width="50" height="50" relative="1" as="geometry">
            <mxPoint x="461.25" y="200" as="sourcePoint" />
            <mxPoint x="511.25" y="150" as="targetPoint" />
          </mxGeometry>
        </mxCell>
        <mxCell id="aZHZSerqJfOUwA4PFhIk-39" value="" style="shape=flexArrow;endArrow=classic;html=1;exitX=0.5;exitY=1;exitDx=0;exitDy=0;entryX=0.551;entryY=0.011;entryDx=0;entryDy=0;entryPerimeter=0;" parent="1" source="w9n8-tRTK-V_4dh_BGKR-4" target="aZHZSerqJfOUwA4PFhIk-34" edge="1">
          <mxGeometry width="50" height="50" relative="1" as="geometry">
            <mxPoint x="591.17" y="10" as="sourcePoint" />
            <mxPoint x="551.3226717557252" y="242" as="targetPoint" />
          </mxGeometry>
        </mxCell>
        <mxCell id="aZHZSerqJfOUwA4PFhIk-40" value="" style="shape=flexArrow;endArrow=classic;html=1;entryX=0.5;entryY=0;entryDx=0;entryDy=0;" parent="1" source="w9n8-tRTK-V_4dh_BGKR-8" target="aZHZSerqJfOUwA4PFhIk-35" edge="1">
          <mxGeometry width="50" height="50" relative="1" as="geometry">
            <mxPoint x="791.1" y="10" as="sourcePoint" />
            <mxPoint x="751.2526717557253" y="242" as="targetPoint" />
          </mxGeometry>
        </mxCell>
        <mxCell id="aZHZSerqJfOUwA4PFhIk-42" value="pipeline X1" style="whiteSpace=wrap;html=1;aspect=fixed;" parent="1" vertex="1">
          <mxGeometry x="301.25" y="506" width="80" height="80" as="geometry" />
        </mxCell>
        <mxCell id="aZHZSerqJfOUwA4PFhIk-43" value="pipeline X2" style="whiteSpace=wrap;html=1;aspect=fixed;" parent="1" vertex="1">
          <mxGeometry x="661.25" y="506" width="80" height="80" as="geometry" />
        </mxCell>
        <mxCell id="aZHZSerqJfOUwA4PFhIk-44" value="" style="endArrow=classic;html=1;exitX=0.5;exitY=0;exitDx=0;exitDy=0;entryX=0.5;entryY=1;entryDx=0;entryDy=0;" parent="1" source="aZHZSerqJfOUwA4PFhIk-42" target="aZHZSerqJfOUwA4PFhIk-31" edge="1">
          <mxGeometry width="50" height="50" relative="1" as="geometry">
            <mxPoint x="651.25" y="346" as="sourcePoint" />
            <mxPoint x="701.25" y="296" as="targetPoint" />
          </mxGeometry>
        </mxCell>
        <mxCell id="aZHZSerqJfOUwA4PFhIk-45" value="Triggers" style="edgeLabel;html=1;align=center;verticalAlign=middle;resizable=0;points=[];" parent="aZHZSerqJfOUwA4PFhIk-44" vertex="1" connectable="0">
          <mxGeometry x="-0.18" y="-1" relative="1" as="geometry">
            <mxPoint as="offset" />
          </mxGeometry>
        </mxCell>
        <mxCell id="aZHZSerqJfOUwA4PFhIk-46" value="" style="endArrow=classic;html=1;exitX=0.5;exitY=0;exitDx=0;exitDy=0;entryX=0.5;entryY=1;entryDx=0;entryDy=0;" parent="1" source="aZHZSerqJfOUwA4PFhIk-42" target="aZHZSerqJfOUwA4PFhIk-34" edge="1">
          <mxGeometry width="50" height="50" relative="1" as="geometry">
            <mxPoint x="651.25" y="346" as="sourcePoint" />
            <mxPoint x="701.25" y="296" as="targetPoint" />
          </mxGeometry>
        </mxCell>
        <mxCell id="aZHZSerqJfOUwA4PFhIk-47" value="Triggers" style="edgeLabel;html=1;align=center;verticalAlign=middle;resizable=0;points=[];" parent="aZHZSerqJfOUwA4PFhIk-46" vertex="1" connectable="0">
          <mxGeometry x="0.1367" y="-2" relative="1" as="geometry">
            <mxPoint as="offset" />
          </mxGeometry>
        </mxCell>
        <mxCell id="aZHZSerqJfOUwA4PFhIk-48" value="" style="endArrow=classic;html=1;exitX=0.5;exitY=0;exitDx=0;exitDy=0;entryX=0.25;entryY=1;entryDx=0;entryDy=0;" parent="1" source="aZHZSerqJfOUwA4PFhIk-43" target="aZHZSerqJfOUwA4PFhIk-35" edge="1">
          <mxGeometry width="50" height="50" relative="1" as="geometry">
            <mxPoint x="651.25" y="346" as="sourcePoint" />
            <mxPoint x="701.25" y="296" as="targetPoint" />
          </mxGeometry>
        </mxCell>
        <mxCell id="aZHZSerqJfOUwA4PFhIk-49" value="Triggers" style="edgeLabel;html=1;align=center;verticalAlign=middle;resizable=0;points=[];" parent="aZHZSerqJfOUwA4PFhIk-48" vertex="1" connectable="0">
          <mxGeometry x="-0.1487" y="-3" relative="1" as="geometry">
            <mxPoint x="-1" as="offset" />
          </mxGeometry>
        </mxCell>
        <mxCell id="aZHZSerqJfOUwA4PFhIk-50" value="" style="shape=flexArrow;endArrow=classic;html=1;exitX=1.006;exitY=0.569;exitDx=0;exitDy=0;exitPerimeter=0;" parent="1" source="aZHZSerqJfOUwA4PFhIk-41" target="aZHZSerqJfOUwA4PFhIk-51" edge="1">
          <mxGeometry width="50" height="50" relative="1" as="geometry">
            <mxPoint x="991.25" y="330" as="sourcePoint" />
            <mxPoint x="1041.25" y="280" as="targetPoint" />
          </mxGeometry>
        </mxCell>
        <mxCell id="aZHZSerqJfOUwA4PFhIk-51" value="Notifying Slack" style="shape=note;whiteSpace=wrap;html=1;backgroundOutline=1;darkOpacity=0.05;" parent="1" vertex="1">
          <mxGeometry x="1051.25" y="393" width="80" height="100" as="geometry" />
        </mxCell>
        <mxCell id="aZHZSerqJfOUwA4PFhIk-52" value="Storage System for Analytics (needs to be discussed)" style="rounded=0;whiteSpace=wrap;html=1;verticalAlign=top;" parent="1" vertex="1">
          <mxGeometry x="1180" y="-84.93" width="320" height="190" as="geometry" />
        </mxCell>
        <mxCell id="aZHZSerqJfOUwA4PFhIk-53" value="&lt;div&gt;Publishing in Jira&lt;br&gt;&lt;/div&gt;" style="shape=note;whiteSpace=wrap;html=1;backgroundOutline=1;darkOpacity=0.05;" parent="1" vertex="1">
          <mxGeometry x="20" width="80" height="100" as="geometry" />
        </mxCell>
        <mxCell id="aZHZSerqJfOUwA4PFhIk-54" value="" style="shape=flexArrow;endArrow=classic;html=1;exitX=0;exitY=0.25;exitDx=0;exitDy=0;" parent="1" source="aZHZSerqJfOUwA4PFhIk-41" target="aZHZSerqJfOUwA4PFhIk-53" edge="1">
          <mxGeometry width="50" height="50" relative="1" as="geometry">
            <mxPoint x="891.25" y="440" as="sourcePoint" />
            <mxPoint x="1041.25" y="330" as="targetPoint" />
          </mxGeometry>
        </mxCell>
        <mxCell id="aZHZSerqJfOUwA4PFhIk-55" value="" style="shape=flexArrow;endArrow=classic;html=1;exitX=0;exitY=0;exitDx=0;exitDy=0;exitPerimeter=0;entryX=-0.009;entryY=0.964;entryDx=0;entryDy=0;entryPerimeter=0;" parent="1" source="aZHZSerqJfOUwA4PFhIk-53" target="aZHZSerqJfOUwA4PFhIk-1" edge="1">
          <mxGeometry width="50" height="50" relative="1" as="geometry">
            <mxPoint x="981.25" y="-220" as="sourcePoint" />
            <mxPoint x="1001.25" y="-500" as="targetPoint" />
          </mxGeometry>
        </mxCell>
        <mxCell id="aZHZSerqJfOUwA4PFhIk-56" value="" style="shape=flexArrow;endArrow=classic;html=1;exitX=0;exitY=0;exitDx=80;exitDy=30;exitPerimeter=0;" parent="1" source="aZHZSerqJfOUwA4PFhIk-57" target="aZHZSerqJfOUwA4PFhIk-52" edge="1">
          <mxGeometry width="50" height="50" relative="1" as="geometry">
            <mxPoint x="1121.25" y="210" as="sourcePoint" />
            <mxPoint x="911.25" y="370" as="targetPoint" />
          </mxGeometry>
        </mxCell>
        <mxCell id="aZHZSerqJfOUwA4PFhIk-57" value="saving the log" style="shape=note;whiteSpace=wrap;html=1;backgroundOutline=1;darkOpacity=0.05;" parent="1" vertex="1">
          <mxGeometry x="1061.25" y="130" width="80" height="100" as="geometry" />
        </mxCell>
        <mxCell id="aZHZSerqJfOUwA4PFhIk-58" value="" style="shape=flexArrow;endArrow=classic;html=1;entryX=0;entryY=0.5;entryDx=0;entryDy=0;entryPerimeter=0;" parent="1" target="aZHZSerqJfOUwA4PFhIk-57" edge="1">
          <mxGeometry width="50" height="50" relative="1" as="geometry">
            <mxPoint x="890.25" y="300" as="sourcePoint" />
            <mxPoint x="1061.25" y="190" as="targetPoint" />
          </mxGeometry>
        </mxCell>
        <mxCell id="aZHZSerqJfOUwA4PFhIk-59" value="" style="shape=flexArrow;endArrow=classic;html=1;exitX=0;exitY=0.25;exitDx=0;exitDy=0;" parent="1" source="aZHZSerqJfOUwA4PFhIk-52" target="aZHZSerqJfOUwA4PFhIk-60" edge="1">
          <mxGeometry width="50" height="50" relative="1" as="geometry">
            <mxPoint x="1011.25" y="240" as="sourcePoint" />
            <mxPoint x="1221.25" y="-130" as="targetPoint" />
          </mxGeometry>
        </mxCell>
        <mxCell id="aZHZSerqJfOUwA4PFhIk-60" value="&lt;div&gt;Improvment (predict failuer, reduce active time...)&lt;/div&gt;" style="shape=note;whiteSpace=wrap;html=1;backgroundOutline=1;darkOpacity=0.05;" parent="1" vertex="1">
          <mxGeometry x="1021.25" y="-190" width="100" height="130" as="geometry" />
        </mxCell>
        <mxCell id="aZHZSerqJfOUwA4PFhIk-61" value="" style="shape=flexArrow;endArrow=classic;html=1;exitX=-0.008;exitY=0.188;exitDx=0;exitDy=0;exitPerimeter=0;entryX=1;entryY=0.388;entryDx=0;entryDy=0;entryPerimeter=0;" parent="1" source="aZHZSerqJfOUwA4PFhIk-60" target="aZHZSerqJfOUwA4PFhIk-10" edge="1">
          <mxGeometry width="50" height="50" relative="1" as="geometry">
            <mxPoint x="1141.25" y="70" as="sourcePoint" />
            <mxPoint x="1191.25" y="20" as="targetPoint" />
          </mxGeometry>
        </mxCell>
        <mxCell id="w9n8-tRTK-V_4dh_BGKR-1" value="&lt;div&gt;test-domainx-testsuitname 1&lt;br&gt;&lt;/div&gt;&lt;div&gt;&lt;br&gt;&lt;br&gt;&lt;/div&gt;" style="rounded=0;whiteSpace=wrap;html=1;verticalAlign=top;" vertex="1" parent="1">
          <mxGeometry x="247.5" y="-10" width="210" height="180" as="geometry" />
        </mxCell>
        <mxCell id="aZHZSerqJfOUwA4PFhIk-15" value="Test ..." style="rounded=0;whiteSpace=wrap;html=1;" parent="1" vertex="1">
          <mxGeometry x="293.75" y="30" width="120" height="60" as="geometry" />
        </mxCell>
        <mxCell id="aZHZSerqJfOUwA4PFhIk-16" value="Test n" style="rounded=0;whiteSpace=wrap;html=1;" parent="1" vertex="1">
          <mxGeometry x="293.75" y="100" width="120" height="60" as="geometry" />
        </mxCell>
        <mxCell id="w9n8-tRTK-V_4dh_BGKR-3" value="&lt;div&gt;test-domain2-testsuitname 1&lt;br&gt;&lt;/div&gt;&lt;div&gt;&lt;br&gt;&lt;br&gt;&lt;/div&gt;" style="rounded=0;whiteSpace=wrap;html=1;verticalAlign=top;" vertex="1" parent="1">
          <mxGeometry x="250" y="-120" width="211.25" height="100" as="geometry" />
        </mxCell>
        <mxCell id="w9n8-tRTK-V_4dh_BGKR-4" value="&lt;div&gt;test-domainx-testsuitname 2&lt;br&gt;&lt;/div&gt;" style="rounded=0;whiteSpace=wrap;html=1;verticalAlign=top;" vertex="1" parent="1">
          <mxGeometry x="481.25" y="-50" width="200" height="200" as="geometry" />
        </mxCell>
        <mxCell id="w9n8-tRTK-V_4dh_BGKR-5" value="Test ..." style="rounded=0;whiteSpace=wrap;html=1;" vertex="1" parent="1">
          <mxGeometry x="290.63" y="-90" width="120" height="60" as="geometry" />
        </mxCell>
        <mxCell id="w9n8-tRTK-V_4dh_BGKR-6" value="&lt;div&gt;test-domain2-testsuitname 2&lt;br&gt;&lt;/div&gt;" style="rounded=0;whiteSpace=wrap;html=1;verticalAlign=top;" vertex="1" parent="1">
          <mxGeometry x="481.25" y="-230" width="200" height="170" as="geometry" />
        </mxCell>
        <mxCell id="w9n8-tRTK-V_4dh_BGKR-8" value="test-domainx-testsuitname n" style="rounded=0;whiteSpace=wrap;html=1;verticalAlign=top;" vertex="1" parent="1">
          <mxGeometry x="701.25" y="10" width="180" height="140" as="geometry" />
        </mxCell>
        <mxCell id="w9n8-tRTK-V_4dh_BGKR-11" value="Target Channel" style="rounded=0;whiteSpace=wrap;html=1;" vertex="1" parent="1">
          <mxGeometry x="1190" y="350" width="340" height="220" as="geometry" />
        </mxCell>
        <mxCell id="w9n8-tRTK-V_4dh_BGKR-12" value="" style="shape=flexArrow;endArrow=classic;html=1;exitX=0;exitY=0;exitDx=65;exitDy=15;exitPerimeter=0;entryX=0;entryY=0.25;entryDx=0;entryDy=0;" edge="1" parent="1" source="aZHZSerqJfOUwA4PFhIk-51" target="w9n8-tRTK-V_4dh_BGKR-11">
          <mxGeometry width="50" height="50" relative="1" as="geometry">
            <mxPoint x="1030" y="220" as="sourcePoint" />
            <mxPoint x="1080" y="170" as="targetPoint" />
          </mxGeometry>
        </mxCell>
        <mxCell id="w9n8-tRTK-V_4dh_BGKR-13" value="" style="shape=image;verticalLabelPosition=bottom;labelBackgroundColor=#ffffff;verticalAlign=top;aspect=fixed;imageAspect=0;image=data:image/webp,UklGRpAyAABXRUJQVlA4IIQyAAAQxwCdASoqA8gBAAAAJaW78V3nl6yt8+x/jB4gz4OgfhZ+r/9059zentZ+nH9c3RKlPL08g/Hv5x+K/9z/4n1b/tf85/En55eYF/DP4r/Qv7N+p39T/5Xez/oH+q9QX8T/ln99/x3vNf5H+Z+x78RvcE/TH59vEX9AL+R/1n1av8l/m/8X8FP65f7f/B/u39BX8e/m/3X/v//vvwA9AD1JP4B+8fuz+b/13+Zfib+xHj5/Iv6r+on7R/4jugOxnqL+1P+E/CG/v9Z4GfxH6X/M/6f+sH9p/4n+M/F387/U/xi/Ir3X+CH75+Tn43fYF+D/w/+W/1L9ZP7Z/pf8p+I2kDyMLAf2P8oPgF9OPkP9g/wn9t/uH91/7P+U/AD5f+5fkz75/YP/De4B/HP5R/bf7R+v/92/7v1p/pfCE+s/5v9lvgA/j384/yf9o/0v+m/yX/c+5b+D/xP98/zP+f/xP/t99H5r/Z/8j/iP2s/wP/5/AL+I/yD+u/17/Ff4f+3/+z/T/er7Cv219hb9Pfn//5qeoMnjTaJjTaJjTaJjTaJjTaJjTaJjTaJjTaJjTaJjTaJjTaJjTaJjTaJjTaJjTaJjTaJjTaJjTaJjTaJjTaJjTaJjTaJjTaJjTaJjTaJjTaJjTaJjTaJjTaJjTaJjTaJjTaJjTaJjTaJjTaJjTaJjTaJjTaJjTaJjTaJjTaJjTaJjTaJjTaJjTaJjTaJjTaJjTaJjTaJjTaJjTaJjTaJjTaJjTaJjTaJjTaJjTaJjTaHbZVeQ35+ReClbR7kcTo7gyeNLB4IbPNL7aMfMnVUSlciY02iY0zFFUpyRo5/KZqoEgrMTpaUASXy16fMmxUd2fCRktenzJ40CJchNVomNNomL5t55oBoD9TWsXUgEfp8yeOguxMabRMacscI02iYyylK244PsgAA25Nq9rjcnYbhv5BOAEtIarqIhB/jZmncIl+Xw72TOLjKc1vuB+DTboaqAU8MkBRmhqMNCP2bLKsBeRkcSCdhpvZdrq9a2jB4GHHScG1AR6mbCQjnM6pD2pLtevmn1RNVm5jUtvBVVwO5Xfa327ARLlZNT5r5JsflPkN+T5qajR8hdPduIGep7T9U6h1yjO14Gqm0RVM0H2WGakhDMb+GzFjfOonCk1EkF7K8pJ2JGTI3cP7vCflpQTymnd2YJAYvgKrIRCZeN5IHBokNkysr6+e1OUj83pYZjDCqCnTI0XRbTp3n7D1p+evaa9wTiC2/C2g6ZoiOJK11EZbcabN2NWtKZd5ezKBYg19Nt+QS6Sn1xtwnFzxcaQU1yHTpUjG9YKDt8TgST4wwX2S4+V5YcjL+elEUsUyDbLFZ7gBkSKXKhUvlVnQzcNloOVrWoS6gpxox8yAH+t8vyk7zpHRDaSGkYPrK0DY3I+4mIueHsDqBcaYUd+GMt0R86vIyLopCl3OHS1hFqcmdY44gtZL/i3rxyfK9MNZBzzm3zwq0XAsMY+ZNSMOLX2iYyLRCgpOLUfR/3aAbTMeabIwtPuECmTk89x48Z2O2jpb8nXTs8elCc+ypR0fWt3Viegzxr4fqMU+7cqutQcQhOukX+yez2+gBUzP/DTicpyYmLTDNfXwry4kIHjpdten03wTvOK9pyRKoDtU5VQZDKYSzZW28YF1kPRH0O+cpUMZ/Tii9IylOAEYXI81Q/m7ONtr+fRuDiNaPo1Tv3m8juVvGCCtr0+YspUDlgBgfCHaXg38ALmTsMXhZDcG/qQvk39QOyxRNuGQQVelk+ZZJz0ivwp4okVKUkkgHeVILhTWBaScYQYmDOwdECZU7aMOVcvNLZfa/EqbFwZjoH6Uw2nH6McbckmNNomNNomNNomNNomNNomNNomNNomNNomNNomNNomNNomNNomNNomNNomNNomNNomNNomNNomNNomNNomNNomNNomNNomNNomNNomNNomNNomNNomNNomNNomNNomNNomNNomNNomNNomNNomNNomNNomNNomNNomNNomNNomNNomNNomNNomNNomNNomNNomNNomNNomNNomNNomNNomNNomNNomNNomNNomNNomNNomNNomNNomNNomNNomNNomNNomNNomNNomNNomNNomNNomNNm4AD+//7254AAAAAAAAAAAAAAAAAcZJjsNnEBXJfp5bxJNWJrR0vul3f+WJ78Ubnsoe1b8Gdh/RNrRKNOWQQjeZ88h5kddBCMumXuSYsGQr+yWt9yUxvkRGNDe81/eQnQQ941bN6blgT7u478U3+0nxans7l+EiyZNo8/mCb67CXIfE8fedr+7Y5s5in04L0K0ovWSKEW1hy2pYiVpPE0IAvHeV4R+S4sk0lWlyF0HNn1SG8THfeAxHi2B2WbB+98WqGTMg5xz+rjE+RJthOQGw+muq7pTkCLfEk2BU2eIKhZpQ0ZMSRNZ/0Zz+7oGhifr0m+HGQVbDbq9JwNLpdM9M/hn1sWfzCAWiA+xbS4/0pqwYrAGM4jVTyWhaP1Ohu00aO8O1xp08gAqTPxrxcu5kQ/TvippyPj/F+W/nYcR56TSfrSOYb2XipJ3I94lip2D+9OfizBs8ERPvXALOYe87CcOux+KEhvviqgdf9UNftvTaqIiJM6JX+p64JDL/maXbipnI1TwYSk31k8J/qdT2Xa0/ofMzr6IDCRHjRm2B0KQ4NFEM5jJYHwvQjaXYTTgKDwIe2O/IRIXrdY1ObGvC32JGZuvYPMi0EGQbnJYtF3yq36yI7L0kJ4AtozRKwVWTyvQ8RuFg1V0s6MIQM0nzYcusIA2S/Eg5D4i39YKF825S78kiFBU6ORPrO38JcX9gNDKStaFV4/taumuGtpRLHodPp4uq3ymHz4zBUmqzPrT0IaUXG+lznrPrBBH38kqCQe68M32/LuWyT3vaFRYzq2nitH1rNr+FQxDxsLNzG0iGBoX3fUO4X06x2E9wgkQJ6J9XIrWXypPrM8715f1iFGtItdaLBT9cs4BgGPXonRPX/4f0FGnOBTe5NM/1GLzWdZrGE0u+JQ49qCmdFDE7zZ1AQ+5aFLCrpKJSf8VGOCOCvlKVxeOW2SBDDWwhCmmx9hnSf+w0nPC83nXWdj0hlFBswHk4Zygh+HuBimSBZ4GKOEov627kgurrX1pED71o9N7dUzZfyxqD+iQwLw4ScpG8P6Apo1olXfGnEAAwA9EwW14Ce1EFfAG2K78CT5EhKc1YD5sK75hKcd5miu201D2yqWhTmCiSQHK4pIgy1VFcqHxgZUDfVXglZfQT7CM0RXc3cccryp99BeAIgLcnifbQyODcHkR2i9N8aC/1tDleCWyh9z8HGLgxkqodMz4p1QIBi9/RxnJodUBFDu1EBXNxd0IUn/mcmjH0syCMjICwYMN9zYRIGhvnXuJwo+OB/RwkKiyTK9QSeJtDkKebvHVWO9PTIaytjiCAD57j1Fsly1krIW7WN50PH4dMk8eUujJ4sRzKXHW4eL7D6nRJOTjbYz6ap6gT2hm1is1FZfqBpc1ETWPxz/jvzdmphKNwXn0+FgP/H8s/xIPICsTovI5UJEftCfKplF/729Cl2IFmEL38LCByKaLGajLfZv26SZiu2X51pAED4jMZ/fTsfqnsnUZSudR/9NuC4VNFKWrb/iiw2rAXUzPgPGjtefh0qjgl5hfW5BZRUHTWzAHdfW1mbXboMZqsRkzwr1HUUAk+05pmSqv/NqFl3vMRyTCsn24NZXQKe2x9q48R5p1Y+3CfVLYkUOejYQeMUqPr6XFSy8xsZlMY7nQl7LICwjbtw1H7/QKM6kVYx8hpUFUiPRfbpXyPfbP7gZnrB749/bCb467pftQy/gyY4Xh+CHQN1OQY8j0Er/QEijKVMb8VIQ05MXwfFpezwJm0mEmJYbvoipD96YlFZMjkB27YWbijra+MOjvk0hWDGgNnQrDm+f3h4h5ADeI/lrw1/gM4/IhpU1LKYU6s2Sa8lazC//9Vz7bpvbhTMU0156aNJ2HSQTuAcf7lPk+Su40LKiUpqNNX8D/+bwVJv8yxfYGhZ+pJYHFLPaEAhcX4sMxDYsPUVmB8l9COojDcE0KRkIdvC8158LI2uLw0u38bxAljUxJubSZJp98i9ghkrfB+ZXgkIuzpKz3lWCm9dY5c3b3XAN0c9quG2m9H52XkE5JtDrKulidZpJbnj2zjiOqjPo+8GcnjvGs9UteRiFOtr2ilroXPVvvztMhRUT9qqcNaP3bUh6nounqa4TTWe0+Em+T/U4lMRMwV1awAag3PI7gKAG/O+Al2dXjQ6ARqsrvwTUllms79ydDU3ap1l46Cdc/ejQbxfB5lTPd++SKWKDd1cBOeQCykO2faIT/hfElmIlUhhW3cp3hyN9o1vu8h7gbOQLYpgNT+dqfzjapjq1t4rEFKjUFbexfEIRkarKur1pwvJossLs4ueKwfP6iF0/AbwWpTV7BzbxgfqtMi3Vlsrz0iqSrep9qNVfCmequOTp8MEqct1SCL3BPDUNDoL0cG6K92WcHJvfqHNHF/SAyduP0dXJZYBVjwgqiDaXV7O5SgkJm8D2puIQ6prrFA+/ytZYU0cMZpOOVB//C5VKz2MtXtHU1b5+3ccz4lxNpE0MZ7Cpkq0FwQ3G3FZlAzD3ToTI0z0TsMw7fIs/2ks4wWxd47xXtsC8jjb0rkZ5pSFTF2q8tSGhBTeat4fLF7bndVbqlr31brT4zQCOciD1owD93c4AehGnFfaoMx2yO8yfcJT2+r/5w5jJdjjIbEkt/VccyG3ZsX7c57908NsCeRjPQUSD3T7BFZuB0C1sXnj8Ax/ZafyfY0WRFLE4xRuoOE8KVGnjdPMKEFH6scGi7MLPDX8oMSjH6oyizl/BIEJH+6X3Q7fcZOCw3Pf74T+ov63qX4QrnT+tMn0yUtLafKnZPz/UhhTyBwpk1rHT9yILwikWaY0RkVyrqBHhILQLhZskZwEz5vif6gKwaYJa0o7MHLEvEcM6oI4dQV40+hNTvv0Q0LxCCy39wAG6sh18z6DtF+dLIYpkvK+FWlxwtJRd8bx5RuCnIiLzYDNuSXoBU01z8fN/1mySDCPdHH9fiqLebg2P8CnlDAy5UVwn303EP3woA67UIq3a5j9pukGQut2DouJQuJoErZCv0Yt0qVN1I5mGQ/h4ACEm0yQmMoK5Mvku9FuAzESnSgyvhSXT43ai/Y/+FJaXBSs6iL7dA1j6QsNurLVCqCXGYyCJybLen7DyONz3odElNsFAEjuGfJWpLU93nHVVvS/HPI0X0cGtxsRBEyn9NpTlEUPtWC7ezjg9FFz2RaA2fMTEpuRfna7NMzm8yAd6XqtUgXKTt9OeAgTKcpeRqN+KJ7YwtfWkQUh0liWwElygqvxvBi6luRqSPI7OQeUFH8CZ8BJgUo7CI84cC6zwerm8/FZWYu8ieAXcPLshhFKWp7AyXa42NsXR2qzmP6SLldRel46jfCk4wzRJpGHVzPnM0dOrX/Vn21HZPeCu+m15bncKWKk1WkQ2LYqMjUtlPr2v+SWI0iO6itRBg6DdRAyg/xHAXjMMBo3IelJoIFkINY6dZIQgMhDYDHkvx6k3IGs3WQ32YqzPykj5GtnaDtp0BIP2S9cOvfNMJRIpcP0t5s+7AgBfdIA6tAE98FywgTAQ7iDDefV3rIxrIjYWcCCXNsQheIyHGFKdvaffvzdSlmSqRQnSxllvSqP+FQBOChVaMGq91np5LfBTc/8+nYOzJqx2EH9xB0uxyo3031pv9xpSJasQ5EY/so+xE1sVLi9EtEcfl7am2lJgTXZfCmjBFrO0/o1FkDOGfTsaEcPaoDsqdtuH0vtsq497E26KPHXGVAA6Nk07UZiz8RShJOKqF7pGcWsXD0DjJ0cFXuN7uz5enoPCzRVDvXWW+PSzi0LBlpGGWQmgUnwVQdx1hI6txX6Izo9WKIioqRy6R1iB18q1/f6hb053fzd0ZfTRKpRUDNNLKaECqsrh4pDLVsgONpXQXoc+iW/YYN2cWYiSsZV3RoUDkwPT8AYTP//FAX4kN1BcrzWw9DQQRBcbDSaJdRxa7dBQrhukoVnIdfQjSyn3pc0vzBKpoKWJBIJH/30UA3vbgjGsGodA4j8SDyA3jNow8seX5rzeM96dYsSBPi9D/z8ZW4ySsv41E7hiZX9Ls+lPvJERjL6uycZaAzcftQB8dW16qV7QUWpixhi8zAxNz4hk6X5XiBX8uMCowRUfyO/O33zGbrBst8bYfjEt4wV4NhEfNM/vsJ+1Xc3S8/jU47yOM1SsS4Y67pIfdl+/JrfGdg2YR8dLRgFdJ0I0RwR+7FGueWYvjUoU237EdHEBK7Fey8Hxt5ouW8LbkCsnreoKTs7/2N2Wpw2xhxrPbQfxCHw+hER9aPaf8oeTHFpi2URXSlDZbjQMfiGRQEg5u7JtV5WkwjXpFvQBBkCeTfvc34JQJOIiXFeIkjFBBFvRPKXXhNGXvnHgV7ODF+m0pHLB95bZgE3ZyFVzhoTvIzmDsBOFiyESijuyPCO383ByuNXdPPk4OWdratkTc4Ihdv4HojLJ2GNbhM3a+gdJ0UO0HDD4HMTg6M0C8gE8InSfIydY06G81qBnNHI9o+N3CTzvDVsJh459dSMU/yasBaJhMzfIepoQqFhII4TXPvQmcwo4gsbOfm5MOiqAjppKRRkVBQHeja7tWnMifNc6qd+paPJtc/7jbhKoRlD/wqpop8rAAs80QYZ6qlVLgNEf8XRQsfEHsryG7OKyX23nMiuuiNpRRPpxs+VxIayhc9A8eR189o4FwV3pNFWOaBVlIxwZdBLabn7suP7fCaJ7iPjrPwRJGbcpt9GXVt/2IogCi/XbBbDGNArIXf/26nXU+dI33EUh+EBA2DhjigSr8/+y+w5fnn2CShxwqUwFDLJf6uDaqOv238u3jkwWuWFgLPeZSTqGIr/+LGVp4N+QeF5hhr2/Hq/auNqkj8UyYxk8fHmE5FBbi+2gPpzpMmrBCPPXGnqR5nMxPmuOOgRO0Q828eST7jMugo2+zQ2XTxaB3vIG3OGU+krzgSqnGij+ii9kQB9HX10b/yK29A7rfdyl8JQxOQtAQWdugMb57aTq0Ds9Lzxk3Pc8XeN8Tp0iOW8VN+zuHFXxaCJ4a+r7WC1V93UHIolBDL6rHIuKLv/Hs4nW/57jble4GN1wSC84tURIfWQm3Zx1aAveqK2RACjUrYWBUPwFpzdAArGgcsTjgIrCcGhxm2ZPo2tTeq1h+BHHwimS7LX8pLDE/fcHAgKfylCpGCe/wK8IseJrcYaeDTqZTvWmkXjXxQ6Qnh6fw/JXRtV+QgpWb/29G/zpGa0+li+llqYKCNs8FeYEippcQDe0HnXKMREP/5x9hv3WQt1B1ZK0Inux5O258x69uPcLYiyPVpOjTkyauTW3tPfOCZsAhUp5Gs9wFHm45/7KG8/Gf/r//rjLtFLH/O4nmvTihwfAdZPBKbxcD54WlfA3p4oIz+xZYV3rhUGXD/VIvsbOMj16Axn/AstVDUudT1zgLiiDcrpKL0MX87ERHWwEATJOSMQMyeDKHRY2cIDfORQUnKV1UxCE6XNxKaDa7NRR5MCKFaxKoF/Blj6R/BThPrQiF3otnULRHaKXL313s6IVaqERi5da5/T2VzgKZkT4ARl7vMICqfyGEyVCgpI4omBjR5wjtx001SkXndMrcm1Z8pdM9bQ6dswNLWBSeCQmjtADtCkKsXaHP7uVAiN9RtQgnRMRSY8jfuSDCeFUtGlKuQ0Pg8B2RDJYPza7z9q+yFOHjn8DVJsj1c1V5h9m37jl8f2+FxCsU5Kq6tIHW4qP8TBjyw1pqT2G+9mrGvZcWCkjunYsAKOs9W7jwLNZd1VRXGTcQHRrX/mpgBHLkQQg5qHlU/Ehbd5LFB4tjVsfWRd3V4QP//FwDHdS0Ph9OUXHebhYsbWt7Gy7Q8j7vYa2byvWau//c+JtXxbc9QrEiNDRQriEFSWSsVrMBhRNJP7yVSwsG3WPcfRgHwedYYaAZZw+BFq4nRq7r/Bw33n0uldAmHnf8SAwBHuWh62BYk/nqz/nE6ODdvGuMEqTNCZoqo/mDWWfKzh9JCTMv70LHNxrGCNcAxC6i6eoOjXr1hR0b8BdcEYj1ym3r/oYGKFVmy6jdZxl3ZY1TcpjTzuqDBPjWZaVSw14+td6BYlLBzOb/Zb15F4514AHA0q9+vWyiiqZQfVIBQ03FIcn/iWvEYAFKo+rBnIdJPjWYcxVgiKkj+pvFZIfvQ6wxmU+flImG1VQUXTNfT7j50Y2u8QCDGd3zS6ffTNZSV2LLNEBEEPof2X2F+pH05BprM9PXyDjv5QZLWkVMvGCYt2iKKY59IQVAurMCP94WFRkFpYMC+xn0CNdO5feTwhT+x042ag+ihw+im4le6Mkr9Fsa0g8E+8jr1uD9czFhc+bP2pdLt/2TlcFgTWF2RF3vcQ2uqY5vtGGnkpf0UOUPZ8Dj6Ni5r4NwI2Myl5FetYwRjxGiMtwQsTLQBxSAeyiiL4yvSDNljhorHCJZfMtm+OipQBkShTQJCc2nYpQXkvhxHnjXlLvINYT09I+oUC+VK2Jr8WSF/IQCCibkG6SCAOYRX4SQIUxDy85bWPaR2t2XlGN/5pUOcTajVyABW0T59fPRjD3erFSAcypArO+l3nZnkzRku5OD3wuK9CxfxXYNJtOl9gMdhLLXXDISATjFqjyRIBGihFpiQWJaJ425AUVtpX2Zp0GwHGovFn/wXNYD92DsAII8MunI2dGEp+2UmXUT4//AcFxt/obJUEp34BNBME4My+SEIVavLwu/tGy/2LRNhLOzUDeRxdH5IMpA4dISAEL7T9+TJFna0IITL/ykfeJ/EI4gBE30Ly4+MB/8bS7VnG1xYgC6gALDsYGzPDT2riCCoWcSG1S/ojEDI3ltrTtvRbgqDS389bwIiVxdzxGlV9HQPghI3anIXVq1MlY6MbzgUbAdB+NnA/gVt1ScZcR9O9S5BXJanR7tSimVfJB2ZGU6QITQ0Q1wuHb0ut4c6B8oCKh92B8SdDNw95x9DU7C3wHBS0z+cyJ6zzuJxNpFnkmGW4nFtauBb3DDO2XtE8laSckH4Ll6gN1rZ7Zb9kHUwHBVYa4f1hdkA1KpmFjAyowvz1HtobaUChj35j9O8ZG27os2n01V2smeavB+04zI17Ys+ef2KtncEnAG+zyjvlY/lK+0F3OKvPK2RNVhi9JsRkWo+mK7JbxgltEpNdRVrHY/BDHWbmxpY3iBkNJDLqWZ82NzxjKe7krtXmkXR6CjAdRensvjfP02itR5oDnAuxQKpzmwjzOJhddiJr5hlFioP4l7xrxeNc9jQo/bB9IwHqLgWScQzPX7sHt2b9lUjFepIwW28JJi4vkG2BExaW4VYzaq3JnuKYks6yabLo2GZsrZCCxB2SIcAx+vQx/ID+1cMVvEF3PgaTI1IIMMUyXr9cWW4ACcdwmat7b/6bWwq2PMbymPm6+pqQHFWL+zi1DxEuxxZ4pPFaBYAErvTVIvKYv67GnXS6A0SGXUMExpz0AsH+Dlqp9GXlKSt+YPJEgCyYogxb6ZiuGCZZNHWYxwSG8fQEilSfcFHAnWQSL2jcgElQRNQh+XKq6mvy8Rce51GLMekJpUsr9TxWWQuL/0xgqrfBhtW+O0zF4ZdpnHwY0aTiW9F82SyJYe5X4Im3+Dx7xOhqEaUrtCiY6VA1ntpLCpoecbrLxhI4N8Y2yIoitPzLgTE7lf/01it1YuWK55l3PkT99OmiUA5FXqplJ/8lC0YvMaT+mBCx8gE5kdpC3xhV/SAUB5sD5d6W2GGcOFfbxoBMh0C0JkMivjPxNZyuQf7hYWHXUAnuhB0TOOIgz5KRsv4wXGfSaPoH6tJwm7feK/Vm+IgXMWHEBRZ6ite8x+jgi7bO2ULXH01F2OUk1spuLYK0AL2h+TD2tktQf5QF3YsYB35L6WbzTh4PNmCzwTSsLEv8WjuLygbX5TMHbzGFiVItpfYltG3z/Sje6tS0LUx/VBlCGC8TzlBnrn0aDf9FTGqa4pHhC66qqmO49lqr3zG/dBM+KYaaPksz08/ZmgYBHPecujnUxERuAorhj0UAE1L6f5OxRQoRQdqsRljg0JlvlgWyLyYa5tOkatouv8Y858P1j/UfD19Pl37t4laoOeEpFtaLEjQTVC5X01/qkroRc4JQXQut3p1Oy9qXFjW0fZzOvAsWarafJ0ai3KZ6hdCdw5jqFURdCYyFsLfD7rWGdxrIvevFBMU7IrQL5//VhugmMP96oQbCaoS+ofOXW9FEE8kGC3SjTLwsc5zF8CLOdx5WYbsU6NJC9hudtckrfEz2pG33kn2cZIwTt61AHB5pB8CiQiAXeiF6piCemZmaKsp8xfG32C8PdAVkHQiV7AJlFEkI7/6dUhkTuke0P+s5xxyATVBxJqpEJqsGViYQcXH5CSLRdoFeCUJEiRqSgDLj8GKWRm6PUNiL1dydD3bv/6Z3yg+qEgi3TdX4KAWtKN1sxyskIb/iQfs6cUPEoQN5ShZGr7MsbbxDbSVuAbjjxzUKPo5E7pBK+lrpUl1sH9NYtdCy8ONWQAHoVoRXUrk6rMb4ljOKk/X7v3SD/JyYL8ciN4xGvdxPSL+jje4aBw46NES/t8RidbSNbePSZOTtHGAgMUTmR6z6GFu3bJQp1ZX5DU6sCn8pY6nyvNmiuaWIZw1PAnVR5xBpgYICyTUy19E3eIkM0QzXUoEj90tOuGMiELK7gQ5buEcF8rP1RYqDM27t/DWgLw1sBm984jZ281D2JNHZKh8AbRDSkYeXDfOQdM24JskJE3wJrZZEso4HBkxE8EUZ057Hj/MhM4rzFiUUhkcRhGwB90DNW1MP2L5QCk/os6YFJaT5HWAyR2UTADMJA6DpQmEtZUsCtEMIkeeaQ237Fm2pdh/TxR4oP8HeBUczUaOrSR2+hdFFbse4P3Juuo9YmJBv+JafOKCZIYDtsZKrdJHTphnXrUVE2eD+0fkcCKI58WrWkWH2p/AuE9gJerj57wUeS2LHoAzvP/zzIZBB+CD7961gKCxcDfFI+6H5TbWWxBDOmAtUi+gi09ylPmsFxqe0GMqUgmna6+W0k/2UjjNNOVHA1ukCb9aaKCZN+uHgu9w2psbDcu3xQT+RnL2gFEtpwfn9oPKstdID3d8zgrvelXes47Yr84Su1L9zMQc5YSE9ExmTUVfCGvi8GLywa9ZX+5ejnKATkZQ+BICpjmipHdDHt6orFQYLSRKrpcN8lgHw8MHJBI2rEZegKBAlHqrHK2QFu/WjFj25GhiX3lAsmWOg2HSXlfZyIC3QKKeXoO1lx+mf7UKwu/jMcpBwWgy5sVkDhyLicLY26fycnlt1tuqQJxabZiVHYI+hN6MQVaeSb3PXQshPSfz+Bvva7AsQQsYpVOdgtMr/UT5oD9VE33XUqKaRP9WQwx/dofFQs+aBk6SoEt0aHU1Ujb2Xa7wk2KqwT6RrMrY6ir9thtRZgbpK62a2B5cFsfpU79NB6KvbIocUgNV/Jv2QT6rtSP+ZKfJE12fhKEmXvuWIHf2PJm87ZjtiezT0hjq8eEgTx7hr4PA7ui1v2MqalNdM4deGHl9G/raWsDW8Gz8pPReoMw58X6gOVcC1UOUdiW9xiey6H/htsOfDGvjar9tp3gsh7dEla61M0kYPS4UI5LC2uaaD/5l6At5CYplpz9zU1YsX7GqWaGoDJPm8VBuj4dJ20wxAwe9lCuaO8RL98JqMQ6eXDW8pT1dOgCDwwtiooSHx0l15fMVyVI1KB9ZgAcL0r5sjQkHvy5QEVDeWVZNuN1u+IYxDA2NYrjPu+w9YJfQWFV0Tma4sDjJB2lsa3HMxvK4NZlHyo3WdWemgSOIEVJYSyUk/qqB7Apc3nz+0BzHRZPSHousSzt62KI1T3qbvcyIzZmhiKB0e99Jvgwh7vovSbM4zD7UJN5Vf3IsdqAuWdpQ3nwAaGQlXhpugAou5tC6QZeEoFXEibF9CaET3AIcpk7gJTxnoGdmG6vk5hyPdG2XXBNTKeNVQaBvw76jnV12LLqVBFuE9uk3rpOwQe94MYLxGPGdhok9Nn4X+9PkP64+Nor21UjN0YPs80Qr3LqQ8nPkDYE1PT3xRN15NMccSqPhcrMidMJWHf9pPI6JmnqXsoz5/mjtDfoaBLG08cv4bJ4vSTzuQjnYV0tsfite+N14yqzBNQJC1kUrkRZB28TeSjc2476ED1LFZAd9HfANFHntap5jTHCEe0a7Aq2JWZx99CsnJB2XtJvk9VOZfooVdDhimr30F4ig/yuasn8UxJOrtj+LmsPqpZ+5BDtYJ+KUmyxMP1tlmLTyuxJqU3MXJcblnOB7wRkC8lE8AvpRPADvCGI5+BRywvzHlChXM1X0LK0gOYCLgIKE3HqoJsgxEgdhOvNeRZ/ef1rY9H8VW70YJQei3pAUlpF6YHDS9Oiz9o/T/v4e1vPgAAScNbzvAn1DKgZp5m90LoQ9zEEx4po89pfP7Svi/xyc6ouRqgpESBzKWN6Y7V+PiQsZqdC9J3ct4Myx+I24Yp/ulZZJeXA3ibOxKhi/KFDidwGgUdPMIEB9/Py5FKy0+yp35UeQqEv4iuIlZWQVI9yRoedaP6mTTnYKoK1zt8JBH+GTQpzuGAxmFCijeelHxb8sYiXIaEu8kaLBILKB+VAHbTcQ0+CBT/QnNLlcqpwl98mivrVB3OCEfdl8hCIhfzvsxyvAyWPhEcLgQ9XGt6V3P8pTAUjAiadRcouFzyc5CVU7SVEDdghhnXr9hUgkkv307S6izRnOAabadahxTujTafDwfXKCwowjG9EGGTsXd7bGQkVX2UlW9ECpNEGqFMXtaawED25KAolwyG622oJPgOF44ErsdLchFrLzIi5ob2D4yueuI/Kp4FqsEw9R/3Lu9TMGTSjKVjz+7dRKxTUQoLQM2zR7w1cHJJBZYHxvypgX8uOYsUvhmp8LqPeZLaoJTNq1JkreufZURPpDx0Xb0AMjDaQKJKiW6/lnGRGeMYgAp40e4SxJhVgfdzoPCWMIbNbW8iJ6OyKoO/Slcw0r6Ua8WbVH8ehsggcRn0fP+5EexZGGzlnkIM25wssIcCbEbX6CrSgS7WM3fX1S95tipFQQ9YWrMMCA2fjW3RsHk5F0D9jTf2mwykS+hhJFdEd5GjjGQA+Jbo23y+WFbobGCT9YG9WRPejP/aAoherumFXvVUVONNstIpyCiITmTvYvfRVlrR6npXRG5Aoha5DwNi3YH2w/WECDf1Tkb39YPKRMyF7YyMHfN46kEQK8zsjRMvf/CgwSk6NXMeriBXfQlNs3f+mqRn6u3Jp7cQ8Y06naLXV/R+4o4UdtFIhi0lh3G/k8FEtvgN03eTd/GLg8Qi9N4tY6xVGuz68r7ltAgKYzYS2uESLOFZfte18ocBZT7bpCDnAEChfmuRX/a8vmxJ1BRTi6XUky8ibxy63L7B5SYT0wdtRCvPMil764tP/7rHXt5zXM+XhPFoXRDptVVAwk784ov8vdB0vRAT0LV5SFrEler2eGFz6YFWKZJMmF12/7oMt5OzxmAJEnu/BVyWbbO6GIwQr5V0mpX0W9fiKhyu+j5/PwYdboaSb+8p4Hcs/XS1z6pzd/H88P1gQnmGAga+NTt2S5HPuoNTFuAPBrdqPoeH2fsQ7q2o3fQgR4A0HfJs6U8M8WS8BRhHuDeuGbT4UJn5BtUUrF3KKEEe1dzqC0APWaugUSRsg6md8QpVg6fAAMYx8pwXjocKjHgRrstSTvmQ5veG5jiUAhM0afdvU94GSzp8NBkL5GaMZ/Sy2+KHMlIimdpOR7aGdkrlhO9UNuWONPUxjP/2HJwaOC4DdhZZURrWlWFwywhMbqd5/ttRjwBPNupHN1iPDaGOJrq4y1885P00OrwhOzdlZ5FCRm0XilX5Ipmluclm4wgyeVJ3UdGCLWIuKawsj1Z2s7fMuownXzPby/8sYPN5bsCwKsfbbMIjzhIXlGPnlYPZO9owmlu0w0hvinDqrSnzE2iMHJmXrxv6KmU69PvnkVgbsp/1EKlxC80w4ZgHHfXS7mq8l0LD79doVWkpNP5UP9Ke4Lc9u4qyhCnNRCotftSZIxhX9JRJtKk8waV3gFV3OVnv4a8tZuMlUATHFelX2XQ4Isblb3y2QdgVGiQRK3vhIl6BiDp4Cs/jf4qEjpXNRd2eKN7c3nObKMG6aNn2VL4ICTEzs6ABQwetW7SfYmTYIgtCJ8hmOGc0N7MjM1PLitUUZvGZnhBsZxk1SyKfU0eIE91+MCQ+xxIadrzLMhKSNZIMDc/DyCC3od8/vIElNPqfCA8S4jYqWTQB0w16f3aWObrb1d+ayprnGvpzqWR3LN/0+KTzEFGIK0/yrJjk4Tg1P/lkwBVC140ApiJEUXDVJX07JQAi91by3vlgJ3+zoZf4EBogrIyivmN5Qs30Vf8GvJHrM7cLZvnrXawxCdsAdbRpq8lIMe5+WojPPMJGuy0Rv3hEkGoKu4JM1NZh+30dsKljmy4G0KbURhBSN55cM0t8lO+jFITE4tsa9YXtFbcTjRKM/6viI6gC88M9zTjP4WzGrr3M1lqIY+NlHfZuluOOJLdU9+fStmbdKW35gkTYUhiKgYgFX5I7NThygIhFRGxIr7MFXMjJpCC/QXIYUxDUXuSqOgFoqz+yZ9ovTJZDRCZKHpRxUpwoIr7BmDiuVeRgmdNWg1LIHqaryIfRn3j6WTBYhUZSGB/yYKqSd9iz9NPZTM9zSSlnb+3CZvqawjYBiaSx4HtQTtVXCbf+BuHz7TVCuPEwS/5cMZLr8jDD+F4yfBxpyg41U5xiKMTa9vP64Z2LN5XXJE3eIJsMxL5xFtnlkgp/chX0OGWb3f+WzSM6oHSaUFRfD9OrTyx0mxe0S9oSvsOOr5ABv2i9/d6+121yiHP2GzTI25xysHzEY28ZEggj+zNkfOeNilFzYaQbB/A7A1xL0UQYitOjfGjypZkEGwLI4JDLHL0t9K2lH15wmWmNhj0RycjFnEtsMAaUDxkjdDJVH1xtfLHcws+zRxcy25awQ6D67WsBL017l2aJq7ADJw+u2c8wh2lAYKgFF6Am1ebkUczScNkkR/0jE2/eTdR0mwxPgFCXAZbfo8qyGAbTE8GVDJ/kAWBX3GNIxe7BoMFYk/colgf22PG7UjeYWbEQ2EWUZAlayvKhZYe8KdBO6uJkpQJ7HnxiqlYIHXT8Cbb94PwaidcB1/dwS+1+ylF+Ucyd6O9Mb+7cEn4XaKRbt/4udFsGjZf3nCYcWOdjRKi+hOaYSC3Cq4Sf583K2/n/+NN7JL6Q2QZziu8Oqlvcf5FKaFIEzYQUxvI41veyuhUh1DKmQnDqgcF1egYdc86X8FJwrAZV+xBsoNwBeLvDTz4gJXddANgn30ufLbWDSlJz6JczJAw5gQh1HdvVfwM0/oKCOnCTKGbHcbWZmyoRnKfAyjEi7G3N2w3+Y05eP62zX7vh+Z94j8SufbCjGnrpSryoQ4WI/ds6CM0pgQ/St3jsFpO47JXp9F2ulP8kJYTjDbs61r7d7qP9eseCONydKIOKcuWJZAcyb7mmdDyqt0pdmbHcTW5wsxMEqRcbReOwfEM4KMh2w64+JThMk8jVEx3i+Znxj5c30A+6BA5ncpuii6GkfcNDxECa0RQNeM0J2UMgAbk4b118ygHD0VzC3z0VXbwYcQjcOhFwHBKXepcBZhN0nsNH6QVQJ3Rp2aZABfFcGKgZ4OzvOIRwoPjFfTGDGnFhbteOgc7yQPWHSBh2xXp7IW014366zsRj1hCBWIAY/dvT1GMW5CX9H0DD57M4l2d7Iz71UeDOjhvOhuYtmr5dKSC5HJTPR1oux/z/lJOmU6KWOuRhDMKasTF88DWa/HRkWazTCpoPIjF92UCPOFaAr03H7w2SIX4mzaP6GQlmce4rPJy6O7/eSOObPSYMBL7b1PKABJeQTElTEEjSqRKoNYYp2rw+GlTZMWu4sBytB/5Nzf0dAH8h6vCEIkpP6fc7g1IJsiKadkvb3gmJTDJ8Ni24QizpCrxMF1OhDibQa65/mRbOypiW8S18ouLvvI8JRC7hTwdb26/18wNvhNjBbEkWtsup75kTQ6nxMRugYOKNsj21+A2be8XSuDKN5Djf1jJ5eUWeC37IF6c3VuUqyUqU7ibZOeqsiWoW9iHUBf42ZcHEoEv/7mgexzSWJ69yXHOhhUbfmO43oQN9WiRcwyr/LQhxklJJ/cmoZj4YkEnrMMDgvYz7AMCi7ZGiS3Q1NqrsDYG9ydyFLK1j+SWI96aHpklxgj/EKgArLD4kdeLVk8Mo5XnlL8NnpVZ4LyXYZwEC0edNjjoz1zqkElpuHOUjWaAlxNJRd/q0duLwfokJQcLd5b3UMGKmicG3vCdnxoGR9+NeknAMggSkoF0NmnIKuDb7gKCzEvSH/Is3wWlm6xmRhaglC2PZYyCfGtpNRxH4byle32XDY7CSh7oDCzcXY94eyu3tho/E1mn1lkVFf8VE53NdEsQVKjx11Ok1O4bYzEcNmxZ0e+RBxVaqS+mhyO3Yj6sxH9ZlnhYTUxGQyolSHtRwMRxr3Jvks2D/OJbTX9MKNsp8XvylyEwZq/nYcXdasn9Wo/eRfHWnqLGsuZZE+jz6bq01wPm/kd7gp+F+2z47ovZOkabjqQA/CmsNWpe588o7MahaXsdMNGbkpEF64mvdX8STMA5OdczwWkZeGY6IKl+2ks6dXNXxQ8BfCzOyx9878Hg7Sh+K5Hcz6+rs7JBoYyetbFoiudBKzjWqA3/S9mQ8RMNx1C6C3rIHGxWVQJ5EjMVlpO2kjwd3Mpb6LhaucFln2SHhOqZLJJJHtfjcLvdeg0YnvdtcmaQ4Xf8Pebo1XUXGEZWlxV08MPfLJHZLDg4wOtvRuncTiJ5/tCvQ67uC/0XGFSqaOD+zwTCG1lxLcRVDsFI2lm3hJSFWTtzdfvIkw2DY0z4expU+hJoVUsW3v0s3titRfmor4i1gKiHpIgLZ6Btvw682h60O/s9g7rdSnA1Iz5mZXgCofFA8FoxrFK7BMJnN18GVNb8eO8IEtXu14KCmArOFyh/hnxmBXmE4IVNW8A/WY9iSZ81kfndEkSw21goCTeRCqxUtKAlp0BAAAAAAAAAAAAAAAAAAAAAAAAAAAA==;" vertex="1" parent="1">
          <mxGeometry x="1210" y="360" width="136.78" height="77" as="geometry" />
        </mxCell>
        <mxCell id="w9n8-tRTK-V_4dh_BGKR-14" value="" style="shape=image;verticalLabelPosition=bottom;labelBackgroundColor=#ffffff;verticalAlign=top;aspect=fixed;imageAspect=0;image=https://assets.stickpng.com/images/58480948cef1014c0b5e48fd.png;" vertex="1" parent="1">
          <mxGeometry x="457.5" y="-970" width="187" height="73" as="geometry" />
        </mxCell>
        <mxCell id="w9n8-tRTK-V_4dh_BGKR-15" value="" style="shape=image;verticalLabelPosition=bottom;labelBackgroundColor=#ffffff;verticalAlign=top;aspect=fixed;imageAspect=0;image=https://res.cloudinary.com/practicaldev/image/fetch/s--i_sb3chq--/c_imagga_scale,f_auto,fl_progressive,h_900,q_auto,w_1600/https://thepracticaldev.s3.amazonaws.com/i/fk0849hvg2rt13bpqhjy.jpg;" vertex="1" parent="1">
          <mxGeometry x="381.25" y="-453.25" width="130" height="73.25" as="geometry" />
        </mxCell>
        <mxCell id="w9n8-tRTK-V_4dh_BGKR-16" value="" style="shape=image;verticalLabelPosition=bottom;labelBackgroundColor=#ffffff;verticalAlign=top;aspect=fixed;imageAspect=0;image=https://d3r49iyjzglexf.cloudfront.net/circleci-logo-stacked-fb-657e221fda1646a7e652c09c9fbfb2b0feb5d710089bb4d8e8c759d37a832694.png;" vertex="1" parent="1">
          <mxGeometry x="417.5" y="210" width="93.75" height="93.75" as="geometry" />
        </mxCell>
        <mxCell id="w9n8-tRTK-V_4dh_BGKR-17" value="" style="shape=image;verticalLabelPosition=bottom;labelBackgroundColor=#ffffff;verticalAlign=top;aspect=fixed;imageAspect=0;image=data:image/png,iVBORw0KGgoAAAANSUhEUgAAAewAAAC4CAYAAAAhQt81AAAMa2lDQ1BJQ0MgUHJvZmlsZQAASImVVwdYU8kWnluSkJDQAhGQEnoTRHqREkILICBVsBGSQEKJMSGo2FFRwbUioljRVRFF1wLIoiL2sij2vlhQUNZFXRRF5U1IQNd95Xvn++bOf8+c+U/JTO4MAJq9XIkkB9UCIFecJ40LC2KOS0llkp4BdaADEGAJCFyeTMKKjY0CUAb7v8v7W9ASynVHBdc/x/+r6PAFMh4AyASI0/kyXi7ETQDgG3kSaR4ARIXeYlqeRIHnQawrhQFCXKrAmUq8W4HTlbhxwCYhjg3xVQDUqFyuNBMAjQdQz8znZUIejc8QO4v5IjEAmiMg9ucJuXyIFbGPyM2dosDlENtCewnEMB7glf4dZ+bf+NOH+LnczCGszGtA1IJFMkkOd8b/WZr/Lbk58kEf1rBRhdLwOEX+sIZ3sqdEKjAV4i5xenSMotYQ94r4yroDgFKE8vBEpT1qxJOxYf0AA2JnPjc4EmIjiEPFOdFRKn16hiiUAzFcLeh0UR4nAWJ9iJcIZCHxKput0ilxKl9obYaUzVLpz3OlA34Vvh7JsxNZKv63QgFHxY9pFAgTkiGmQGyZL0qKhlgDYidZdnykymZ0gZAdPWgjlccp4reEOE4gDgtS8mP5GdLQOJV9ca5sMF9sq1DEiVbhg3nChHBlfbDTPO5A/DAX7KpAzEoc5BHIxkUN5sIXBIcoc8c6BOLEeBVPryQvKE45F6dIcmJV9ri5ICdMoTeH2E2WH6+aiyflwcWp5MczJHmxCco48YIsbkSsMh58JYgCbBAMmEAOWzqYArKAqKWrrgu+KUdCARdIQSYQAEeVZnBG8sCIGD7jQQH4AyIBkA3NCxoYFYB8qP8ypFU+HUHGwGj+wIxs8BziXBAJcuC7fGCWeMhbEngGNaJ/eOfCxoPx5sCmGP/3+kHtNw0LaqJUGvmgR6bmoCUxhBhMDCeGEu1wQ9wf98Wj4DMQNhfcC/cezOObPeE5oZXwhHCT0Ea4O1lUKP0hyjGgDfKHqmqR/n0tcGvI6Y4H4X6QHTLjDNwQOOJu0A8LD4Ce3aGWrYpbURXmD9x/y+C7X0NlR3Ymo+Rh5ECy7Y8zNew13IdYFLX+vj7KWNOH6s0eGvnRP/u76vNhH/mjJbYEO4Sdw05iF7BGrA4wsRNYPXYZO6bAQ6vr2cDqGvQWNxBPNuQR/cMfV+VTUUmZc7Vzp/Nn5VieYHqeYuOxp0hmSEWZwjwmC34dBEyOmOc0guni7OIMgOJbo/z7escY+IYgjIvfdIUPAfBL6e/vb/ymi4L793AH3P5d33Q21QDQjgNwfhFPLs1X6nDFgwD/JTThTjMAJsAC2MJ8XIAH8AWBIAREgBiQAFLAJFhlIVznUjANzALzQREoASvBWrABbAHbwW6wDxwEdaARnARnwSVwFdwE9+HqaQevQDd4D/oQBCEhNISOGCCmiBXigLggXog/EoJEIXFICpKGZCJiRI7MQhYgJchqZAOyDalCfkGOIieRC0grchd5jHQib5FPKIZSUV3UGLVGR6JeKAuNRBPQiWgmOhUtQBeiy9FytBLdi9aiJ9FL6E20DX2F9mAAU8cYmBnmiHlhbCwGS8UyMCk2ByvGyrBKrAZrgL/zdawN68I+4kScjjNxR7iCw/FEnIdPxefgy/AN+G68Fj+NX8cf4934VwKNYERwIPgQOIRxhEzCNEIRoYywk3CEcAbupXbCeyKRyCDaED3hXkwhZhFnEpcRNxH3E5uIrcSnxB4SiWRAciD5kWJIXFIeqYi0nrSXdIJ0jdRO6lVTVzNVc1ELVUtVE6sVqpWp7VE7rnZN7YVaH1mLbEX2IceQ+eQZ5BXkHeQG8hVyO7mPok2xofhREihZlPmUckoN5QzlAeWdurq6ubq3+lh1kfo89XL1A+rn1R+rf6TqUO2pbOoEqpy6nLqL2kS9S31Ho9GsaYG0VFoebTmtinaK9ojWq0HXcNLgaPA15mpUaNRqXNN4rUnWtNJkaU7SLNAs0zykeUWzS4usZa3F1uJqzdGq0DqqdVurR5uuPUo7RjtXe5n2Hu0L2h06JB1rnRAdvs5Cne06p3Se0jG6BZ1N59EX0HfQz9DbdYm6Nroc3SzdEt19ui263Xo6em56SXrT9Sr0jum1MTCGNYPDyGGsYBxk3GJ8GmY8jDVMMGzpsJph14Z90B+uH6gv0C/W369/U/+TAdMgxCDbYJVBncFDQ9zQ3nCs4TTDzYZnDLuG6w73Hc4bXjz84PB7RqiRvVGc0Uyj7UaXjXqMTYzDjCXG641PGXeZMEwCTbJMSk2Om3Sa0k39TUWmpaYnTF8y9ZgsZg6znHma2W1mZBZuJjfbZtZi1mduY55oXmi+3/yhBcXCyyLDotSi2aLb0tRyjOUsy2rLe1ZkKy8rodU6q3NWH6xtrJOtF1vXWXfY6NtwbApsqm0e2NJsA2yn2lba3rAj2nnZZdttsrtqj9q72wvtK+yvOKAOHg4ih00OrSMII7xHiEdUjrjtSHVkOeY7Vjs+dmI4RTkVOtU5vR5pOTJ15KqR50Z+dXZ3znHe4Xx/lM6oiFGFoxpGvXWxd+G5VLjccKW5hrrOda13fePm4CZw2+x2x53uPsZ9sXuz+xcPTw+pR41Hp6elZ5rnRs/bXrpesV7LvM57E7yDvOd6N3p/9PHwyfM56POnr6Nvtu8e347RNqMFo3eMfupn7sf12+bX5s/0T/Pf6t8WYBbADagMeBJoEcgP3Bn4gmXHymLtZb0Ocg6SBh0J+sD2Yc9mNwVjwWHBxcEtITohiSEbQh6FmodmhlaHdoe5h80MawonhEeGrwq/zTHm8DhVnO4Iz4jZEacjqZHxkRsin0TZR0mjGsagYyLGrBnzINoqWhxdFwNiODFrYh7G2sROjf11LHFs7NiKsc/jRsXNijsXT4+fHL8n/n1CUMKKhPuJtonyxOYkzaQJSVVJH5KDk1cnt40bOW72uEsphimilPpUUmpS6s7UnvEh49eOb5/gPqFowq2JNhOnT7wwyXBSzqRjkzUncycfSiOkJaftSfvMjeFWcnvSOekb07t5bN463it+IL+U3ynwE6wWvMjwy1id0ZHpl7kms1MYICwTdonYog2iN1nhWVuyPmTHZO/K7s9Jztmfq5ablntUrCPOFp+eYjJl+pRWiYOkSNI21Wfq2qnd0kjpThkimyirz9OFh/rLclv5IvnjfP/8ivzeaUnTDk3Xni6efnmG/YylM14UhBb8PBOfyZvZPMts1vxZj2ezZm+bg8xJn9M812Luwrnt88Lm7Z5PmZ89/7dC58LVhX8tSF7QsNB44byFTxeFLaou0iiSFt1e7Lt4yxJ8iWhJy1LXpeuXfi3mF18scS4pK/m8jLfs4k+jfir/qX95xvKWFR4rNq8krhSvvLUqYNXu1dqrC1Y/XTNmTW0ps7S49K+1k9deKHMr27KOsk6+rq08qrx+veX6les/bxBuuFkRVLF/o9HGpRs/bOJvurY5cHPNFuMtJVs+bRVtvbMtbFttpXVl2Xbi9vztz3ck7Tj3s9fPVTsNd5bs/LJLvKttd9zu01WeVVV7jPasqEar5dWdeyfsvboveF99jWPNtv2M/SUHwAH5gZe/pP1y62DkweZDXodqDlsd3niEfqS4FqmdUdtdJ6xrq0+pbz0acbS5wbfhyK9Ov+5qNGusOKZ3bMVxyvGFx/tPFJzoaZI0dZ3MPPm0eXLz/VPjTt04PfZ0y5nIM+fPhp49dY517sR5v/ONF3wuHL3odbHuksel2svul4/85v7bkRaPltornlfqr3pfbWgd3Xr8WsC1k9eDr5+9wblx6Wb0zdZbibfu3J5wu+0O/07H3Zy7b+7l3+u7P+8B4UHxQ62HZY+MHlX+bvf7/jaPtmOPgx9ffhL/5P5T3tNXz2TPPrcvfE57XvbC9EVVh0tHY2do59WX41+2v5K86usq+kP7j42vbV8f/jPwz8vd47rb30jf9L9d9s7g3a6/3P5q7ontefQ+933fh+Jeg97dH70+nvuU/OlF37TPpM/lX+y+NHyN/PqgP7e/X8KVcgeOAhhsaEYGAG93wXNCCgB0eG+jjFfeBQcEUd5fBxD4T1h5XxwQDwBqYKc4xrObADgAm/U8yA3fFUf4hECAuroONZXIMlxdlFxUeBMi9Pb3vzMGgNQAwBdpf3/fpv7+LztgsHcBaJqqvIMqhAjvDFs9Fej6jk3zwA+ivJ9+l+OPPVBE4AZ+7P8FIQGQwlB8310AAACKZVhJZk1NACoAAAAIAAQBGgAFAAAAAQAAAD4BGwAFAAAAAQAAAEYBKAADAAAAAQACAACHaQAEAAAAAQAAAE4AAAAAAAAAkAAAAAEAAACQAAAAAQADkoYABwAAABIAAAB4oAIABAAAAAEAAAHsoAMABAAAAAEAAAC4AAAAAEFTQ0lJAAAAU2NyZWVuc2hvdGtWsnIAAAAJcEhZcwAAFiUAABYlAUlSJPAAAAHWaVRYdFhNTDpjb20uYWRvYmUueG1wAAAAAAA8eDp4bXBtZXRhIHhtbG5zOng9ImFkb2JlOm5zOm1ldGEvIiB4OnhtcHRrPSJYTVAgQ29yZSA2LjAuMCI+CiAgIDxyZGY6UkRGIHhtbG5zOnJkZj0iaHR0cDovL3d3dy53My5vcmcvMTk5OS8wMi8yMi1yZGYtc3ludGF4LW5zIyI+CiAgICAgIDxyZGY6RGVzY3JpcHRpb24gcmRmOmFib3V0PSIiCiAgICAgICAgICAgIHhtbG5zOmV4aWY9Imh0dHA6Ly9ucy5hZG9iZS5jb20vZXhpZi8xLjAvIj4KICAgICAgICAgPGV4aWY6UGl4ZWxZRGltZW5zaW9uPjE4NDwvZXhpZjpQaXhlbFlEaW1lbnNpb24+CiAgICAgICAgIDxleGlmOlBpeGVsWERpbWVuc2lvbj40OTI8L2V4aWY6UGl4ZWxYRGltZW5zaW9uPgogICAgICAgICA8ZXhpZjpVc2VyQ29tbWVudD5TY3JlZW5zaG90PC9leGlmOlVzZXJDb21tZW50PgogICAgICA8L3JkZjpEZXNjcmlwdGlvbj4KICAgPC9yZGY6UkRGPgo8L3g6eG1wbWV0YT4KVzqKQwAAABxpRE9UAAAAAgAAAAAAAABcAAAAKAAAAFwAAABcAAANN4CUaCcAAA0DSURBVHgB7N0JkBTVHcfxPzfLFVBQSBCIC5FwCAEiUBhXkBKFMhwJGI1KqSBBlIRDRKSkIAJKgRRyyhFUohIUQUSOuAhRrnBfcgsChvs+5VhIv92Z2dnp6w074LyZb1vWzHS/7Xn9ea/7N8z0686TOrDDNWFCAAEEEEAAgbgWyENgx3X7UDkEEEAAAQQyBQhsOgICCCCAAAIGCBDYBjQSVUQAAQQQQIDApg8ggAACCCBggACBbUAjUUUEEEAAAQQIbPoAAggggAACBggQ2AY0ElVEAAEEEECAwKYPIIAAAgggYIAAgW1AI1FFBBBAAAEECGz6AAIIIIAAAgYIENgGNBJVRAABBBBAgMCmDyCAAAIIIGCAAIFtQCNRRQQQQAABBAhs+gACCCCAAAIGCBDYBjQSVUQAAQQQQIDApg8ggAACCCBggACBbUAjUUUEEEAAAQQIbPoAAggggAACBggQ2AY0ElVEAAEEEECAwKYPIIAAAgggYIAAgW1AI1FFBBBAAAEECGz6AAIIIIAAAgYIENgGNBJVRAABBBBAgMCmDyCAAAIIIGCAAIFtQCNRRQQQQAABBAhs+gACCCCAAAIGCBDYBjQSVUQAAQQQQIDApg8ggAACCCBggACBbUAjUUUEEEAAAQQIbPoAAggggAACBggQ2AY0ElVEAAEEEECAwKYPIIAAAgggYIAAgW1AI1FFBBBAAAEECGz6AAIIIIAAAgYIENgGNBJVRAABBBBAgMCmDyCAAAIIIGCAAIFtQCNRRQQQQAABBAhs+gACCCCAAAIGCBDYBjQSVUQAAQQQQIDApg8ggAACCCBggACBbUAjUUUEEEAAAQQIbPoAAggggAACBggQ2AY0ElVEAAEEEECAwKYPIIAAAgggYIAAgW1AI1FFBBBAAAEECGz6AAIIIIAAAgYIENgGNBJVRAABBBBAgMCmDyCAAAIIIGCAAIFtQCNRRQQQQAABBAhs+gACCCCAAAIGCBDYBjQSVUQAAQQQQIDApg8ggAACCCBggACBbUAjUUUEEEAAAQQIbPoAAggggAACBggQ2AY0ElVEAAEEEECAwKYPIIAAAgggYIAAgW1AI1FFBBBAAAEECGz6AAIIIIAAAgYIENgGNBJVRAABBBBAgMCmDyCAAAIIIGCAAIFtQCNRRQQQQAABBAhs+gACCCCAAAIGCBDYBjQSVUQAAQQQQIDApg8ggAACCCBggACBbUAjUUUEEEAAAQQIbPoAAggggAACBggQ2AY0ElVEAAEEEECAwKYPIIAAAgggYIAAgW1AI1FFBBBAAAEECGz6AAIIIIAAAgYIENgGNBJVRAABBBBAgMCmDyCAAAIIIGCAAIFtQCNRRQQQQCCZBG4pUlyKFiwk+04eTabN9t1WAjtApDrI/ZVr+oLFqsDS3Vvk4JkTWqtrVaOB5M2bV6usKnQ544qc/vG8HD9/Vo6cPaX9PtpvECj4cNW6kmLtVDd6+vbgXtl2+AfPt1E7dzOrPjrT/lPHZfmerb5F65RPlUq33O5bThVYtHOj5X3Gs2xaag25tWgJzzKxWnj6wnlJ37HOc3Wqv6t+/1NMa374Tr4/fsj1rZW78veadh09KOv27/IqElr2SPV7pEC+/KHXkU+uXr0qMzctj5zt+DoejxV+x4gfL1+SOVtWOW6P28ymVWpLiZQibosz58/fulrOXbroWcZrodpvW9VomNnWtX9xp5QtXkoK5S+Q40/UsezIudNy+MxJOXT2pKj998vta2Xjge9zlEuGFwR2oJUfr5MmAx564qa1+chvPpcR38zyfb+a5SrJjKdf9S3nV+CSFeJ7TxyRlfu2i/qw8PWuTbna0dT77ewzwe9tY7JcHWi6znjHc13q4DKubRfPMsGF/zt1TNJG9w6+dH2c3aGfVL2tvOvy8AUD0/8lk1ekh8+yPV/84pDMA5JtwQ2Yodq72pudPde8sttwKZVSzLPMjVr4/qqvZMC/P3Jd/WsPPiZP1WviulwtWLJ7s7T/aLhnGbVQBeyKv73lW+6h8a/JzqMHfMvF27FC9xhRa+gLUe3zG18aLSkFCnp6dP5kTGZ4ehZyWKg+kHVp1EKa/7qeLaAdijvO2nPicOaHkOkblnp++HP8Y0NnEtiBhou3nTDYn3R3xmB53ceMa1dl8a7NMnjBNK2DlNN6TQ1stS2Nx7zi+XWb+uS/tsdIyZsnj9Om2+YR2DYSzxkEtidPjoV+H+51jxHxEtjP1n9Quqe1uu6gzoETeLHV+gZu7NI58sXmlU6LE2YegR1oymQL7GAPvnI1Qz7dsEwGpk+N6tO3+nuTA9svYNvUbChDHnkmyOT76Lc+tQL+hZ3NSGBnW/g9S6TAHt6yo6ifJ27EpH7S6Dlr0o1Yddysk8AONEWyBnawJ3537KC0mfx6VKFtcmAv3LlBOk4bGdx82+PQ3z9r/bbWwDbfbQaB7SbjPJ/AdnZxmpsogf1k3cbSr9njTpsYk3kEdkwYzVhJsge2aqVNB/dIq3+8rt1gJgf22YsXpPawrq7bGu2/hglsV0rHBQS2I4vjzEQI7OplK8i0p3rH9GvwSCwCO1IkgV8T2FmNO/w/M2X0ki+0WtrkwFYb+KcpQ2TVvh22bVUnxKT/Rf+Di1oBgW1j9JxBYHvy5FiYCIG9oPMgqViqTI7tivULAjvWonG8PgI7q3FOWUMo7hvVS+urcdMDW52kMmzRDFuvVCfFvPJAW9t8rxkEtpeOfRmBbTdxm2N6YDepfLeMb/ei2+bZ5qthYvtPH8sckpphDbcrVaSY3FaspPX/z2xlw2cQ2OEaCf5cN7B1x077cY1aPFumrv3ar5jongGq1nXBGmuppqIFC0uZYiWktDXmV41rLOPT0SMr0X/+hzJl9cLI2bbX6l+hhT2GfZRMKSqF83sPC1Er9TP9/NsV8uZXn9jeP3xGNMO6gn+3fv9u+cO7g4IvQ4+THu0qaanRjcmPVWCr4Vh+47lDFfV4curCOWkxsb9HCZH3Husmt1v9Q2eqXLqcbzF1oD1w+rhvOVXgwzWLRIW225QIw7r8+rXbtkfO9ztW6B4jfqqzxF9t+qg8fU/TyM2yvVbDLScun+967LmjZGlpXLmW9X9NafTLarYRHAS2jTRxZ+gE9n7rYHTfqJdvKkIsdkYVZh0bNpO65Str1X3+tjXSZfpYrbJehdQYy7dbd/IqImes35J/4/Fbsucfhy28nsBWZ8jXfeuvtm8T1vUcKcWsDz3RTLEK7L5zp2h9kIumbrEoO7djf6lS5ueeqxqycLqMXzbPs4zuQtMD+2YeK2JxjHBql1iNw575TF+pUbai01uE5h2wLiLVctLftT+sqp+tOljfhLWs0SA0VpzADnEm/pNEDuxg602wvpZqbH095Tcds64qVH9ED79ivsvjPbDVBqgLsoRfAap+hbvkgyd6+m5bZAECW4TAzu4VBHa2xdbe4yR/3nzZMxyeqQvgqAvhRDupbxAHt2gvv7uzeuaV6hjWFa2goeWTIbDVFZ8WdB4oxQul+LZStF+fOa3QhMCetm6x9JnzXqj6LzVuI50aPhx6rfuEwCaww/sKgZ2lUe+OKjL1yV7hNLbnOlfls/1RxIwW1X4rVzIyRH07mMgT47ADrZsMga029Z22L8gDVWr59umm4/rm+nJ/8RTY6utvp0/5e08ekSZj+oQ8PrUuA3u3dTnYyEldGS5fHvfruRPYBHZ4nyGwszTU9eontnMfPqlK+Q2xDHdN9ucEdqAHJEtg654A0u79N0TdoCE3UzwFthpjnnprudDvXeHbFbxMqboc6eruIxyDXVl43YyCwCaww/sUgZ2lofsTk+513MONk/E5gR1o9WQJbN0hSx2mvZ15B6rc7BTxFNjqrk4Xr1yR+hV+ZdskdRMKdcayW33VwVedUa7uTuY2EdgEdnjfILCzNHRvvOI2YiPclOciBHagFyRLYHdPay3PN2ru2/ev9ySQ8BW7BWB4mZt1lrgK7CXWXcrUHYIipwU71kunj0fJoObtpV3teyMXy+zNKySfddIMgc1Z4qpzxNuxIt7PEtc521y5bjm0T7p9NuG6b0ak1pHoE4EdaOF42wmDHS/WO+OIVs+JOkHDb2o9eWCu7zcbb4E9dOEM+eef7We/q/vt1rGGd7ldjanfvA+kQaWqBDbDujJ3m3g7VsT6GBE8NugErc7tNec9N0B0xvGr91UnoM3a9F8Zt2xurs+hCW5HIj0S2IHW1NkJz1++KD0+y93dYNRJTtusW8HpTrHeGRc+P1jUBQj8pntH9vK9oInfOuItsP/47mDZ/PJYKZgvv63qPay7/AyzbvjhNKkT8Hrc3/qmBPb0DUskfft6p2poz/ty+1rtsroF43Ecttofl+/Z5rsJRQoUkgYV7/Itp/s7arwdK2J9jAhCxSqwo72Rjnr/a9Z/q/btlI/XL7buJrg0WKWkf/w/AAAA//+MKalMAAAQK0lEQVTtnQu8TcUex//KK6nUJXHpVlL0kFBJKSRJivSW9PCISolSub30UKlIiJS4SUUoOYXrfEKIj8j7UZ6l8vjo4Vme567Z9px94uy1Zu+zndb+3+/4fKy198yaPf/vf2Z+a82ZmVWgwvOts4QgzatdKs80bHHISXy1Zqm0fL+n8++cXeYk+fjOfwemP+eV+2T7rp2+6TrXuVba12rkm8ZErtv6m9Tu0yUwXVCCRpVryOvX3u2bbOvOP+TcV+/3TeMSWb9iVRlww71xk877eZVcP+QFGdHyUalWrsJB6X7e8quUPfq4g77ftH2L1OzdWfo0aydXVqp+ULz94vnM4TJ4Vqb9mOtxWocecsJRx+Yal8ovb3z3Rfnmx5WpzFLGtekmFUuV9c2zx6RRMnDGeN80rpFPNrhFWtao55o8JekaDnxSVmxaF5hX2PqKVPYROY1f+HA/OaJQ4ZxfHXTefuQbMvG7uQd9n/OL8iVKyoS7n5XChxfM+bXzuekjJiz7RkbMn5ryeu1ciJAkLIBg7/dE2BqhrR+paIxHFi4id13QQO656CopdNjhNuu4x9ELZ0iXse/EjXeNCKNgd6l7nbS9sKGrCZHOyHRKCDaCbStN2PqKVPQR1racx1QJtsnzqSuay23V6+bMPqnzuT+tkr7TxsqUlYuSuj7dL0Kwox4MWyO0Fcu1MXYYPUC2eHeiJhQrVETKHH2slCp+TOSpsf5p54oRbdfw4Ji3ZOziWa7J46YLo2BfWuEsGXTTA3HLfGBE98wR8s6siQg2T9jZVSNsfYVrH+EyCpdtpHeSSsE2/c9/2z0npYuXyPkTSZ8vXLdG+k37TDKXz0s6j3S8EMGOei1sjdBWJtfGaNPn9bg3a59U84aog4bXXX4njIJtyr300QFOIw0m7VVvd5NvN/6IYCPYpjpEQtj6Ctc+4u8UbAPODI0PvbWzlDum5H6QKfh/5vfL5O6P+qakv0pBcQ55Fgh2FHHYGqH1vGtjtOnzehy1YLo8kjEkr9lErg+rYI/25gRU8eYGBIXNf+6Q6j33P40zJM6QuK0vYesrXPuIv1uwDT/zpP3CVXeI6RtSFcwN9W3evKBfd2xNVZahzQfBjrombI3Q1hjXxmjT5+W4eP0P0uSdZ/OSxV+uDatgd61/o9x1/uV/KWtuH6asXCithr8eiUKwEWxbR8LWV7j2EWEQbMvwcu/PdJ3qNJWKJf0nMtr0QUczadRM5l3z64agpGkdj2BH3Re2RmhrlWtjtOmTPf72xza5+u1nZL03QzxVIayCHTSj3Nr/6uSPpf9Xn0c+ItgItq0XYesrXPuIMAm2ZdmsSi1p5d08n358OftV0seVv6yXK958Iunr0+FCBDvqJddGuMUbJs1LMLMbzaQu1+DaGF3zyy3dT5t/kc6fDpLZa5fnFp30d2EVbDMsN6dTbykYMGPeLAMzy8FMyE/BzksdM2s0b/KWdbksT4oY5vhfGJd1mZvMjCVfB1pwVJEjpOlZNQPTpXpZV178aArr2le49hFhFGzrlAtOPF1anldP6p5aJenlXyavLhmDZfSCr2y26o4IdtSlLoJthl0u6ftIvlYC18aYTKF27N4pw+ZMlpe+GJnM5YHXhFWwTcHH3PWEnHnCiXFtMGyqvHxfdnx+Cfbj44bKh3O/zP7dsJyEUbCnr14it3/QKxDRccWOklkdg/c+SKVg52df4dpHhFmwrRPNzXTzanWkiXeDVSmJp+7vf9sol/UP3rfC/l66HRHsqMf+XwTbPJXM+XGFfOY9maRi6ZZfhQ+zYAetCzWzT1sMezXbPAQ7fEPiCPb+6qlJsLMbnHdibqjv9IbLG59xXuBoWM7rND9lI9hRT6e7YE/8bp7s3LMrYs3effvkj927vKUOf8oOb/ezLTt3RIZIzaSy/JxJGWbBNruWGRGOF/pNy5BeX47JjkawEWxbGcLWV2gVbMv7pONKS88mrZ1WdphrPpg7RZ4Y9569XNURwY66M2yN0NayQ9UYbf6H8hhmwTZ2m6HSeOHAGxsEG8G2dSVsfcWpJcvI+LbP2OLFPR6KIfFWw3vn265j7zbvJLVOqhzXPhsxddViufPD1+xHVUcEO+rOsDVCW8sQbEvC/xg089vuJe6fS/xYBBvBtrUjbH2F2Z/e7FMfFBIVbJcNhnJOzAz6/bzGmxvsyfe+ENnJ0S8vs7Sr/oDH/ZKkbRyCHXVd2BqhrVEItiXhf0Sw/fnkNZZJZzGCYesrzESt+Q/1jRUwzlki4up6E2CEMT/XPndvdLvcWPXiOBbu/3rnnt1yZo97fNOkaySCHfVc2BqhrVAItiXhf0Sw/fnkNRbBjhEMY1+xvOtAKeD98wuJTMaqfcqZMvjmjn7ZReLOf61Tvs6LaeW9xOixy24ILFeiowmBGYYkAYIddUQYG6EpGoLt1lIQbDdOyaZCsGPkwthXTPWGxMsEvLrVLBc0ywZdQsdLmsh9Fzf2Ter6JPta0zbeBkTjInvy+2boEPlA7WukQ+2rA1Oe2r1NYJp0TIBgR70WxkZoioZguzUrBNuNU7KpEOwYuTD2FYNuul8urXB2rJC5nO3au0cavfV04BC2GWKf3uFlKe5tOOMXlm5YK1cP8p/sZtfA7963V4Z474vP654P/a+/R8y2pn5hj/dblV6MvwLE79qwxyHYUQ+FsRGaoiHYbk0IwXbjlGwqBDtGLox9xUN1mkm7WlfGChnnbMaaZd6LMmL7C+SWLGiCpb3mk0Uz5SFvh0S/YAXbpln7+ybpNz1DRs6fbr9yPlYrV0GGtXg48E175mUg5i17GgOCHfWqSyPc5r1vuvWIPimpB0s3/OD0SrgwC7bZ2OAI793b8UI9b5vBthc2jBcd+X5fVpY0f+9l3zSrvD2CD1xmdeAFWgR76JxJkU1tDrQv0c9bvbpqOq5UBQQ7RjKMfUVQ/Y+VXsTsBtZ5zKDsbXdtnFke1qtJG6lcurz9yvf43MThMuTrTN80Bwq2TbzOe2fB0NlfeDstTnLqB03ZBt/yYOCwv8nfvL/evMdeY0Cwo151aYSprAB9po6V3lM/DcwyzIK9oqv7nuiBhvok+HzpbLn/4zd9UogEdVjpsqzL18gEIs3w5xkvtU/gCv+kCHaMT1j7ilkde3l7CxSPFTTgbNP2LWJuhvdl7ZOT/3GClC5eIuCKWLQZ4q7hvXp2u7cxk1+IJ9j2GpPPgp9Xy/TVS2Xa6sXecP3G7Jtzc+1ppf4pN59bW670Xsd5eIHD7GW+R7NDodmpUGNAsKNeDWsjRLBFEOzEux4EO8YsSDRsylTuJW7zTMXR9eb+6SuaS4vqdVPxk4F5TFqxQNo4jDa6ss/5g3u9G4gsb+Qt6OU8Oa+x59u83R2rvtLBflR3RLCjLkWwE6/bPGHHmD2fOVwGe5Nq/ILZ3MKsb82PgGDHKLuKRroLthk2zmj9VFJCF6Pldua6w5kre7dfDU417JvJ8tT4YcEJ0zQFgh11HIKdeA1GsGPMEGyRHpNGycAZ42NQ8nD2ZINbpGWNer45hPnlH74FTzDS9QnbZNu5zrXSvlajBH8hseQZS2ZJx0/c/hyWn4I93xtav25I98SMSbPUCHbUYQh24jUXwY4xQ7AR7FhtSO1ZIoJtftk8ZSfzakqXUm/Y9rs08HY3C/rbtc0rvwTb/D3eLFkLmpxqy5WuRwQ76jkEO/EqjGDHmCHYCHasNqT2LFHBNuuoB9/8oJhlUKkMZoJay/d7ynpvhrdrMGWZ+UBPbzVJYddLEk5nXhncfuQbMnvt8oSvTbcLEOyoxxDsxKsugh1jhmAj2LHakNqzRAXb/rrZd7tZlQvz/DftLMmSzO/me2uu33Z+srZlsMcbzrlYmpxVU847saLzbG97rd9x/LI58kjG4KTL5Zd3GOMQ7KhXmnqV6ZVrWuWbj8yOP2/NnBD4e2Yiybi23Xz3CU71BKPAQkUTLOrST4oWPHR3zrYcoxZM9xrlEPsx12PNf1WS927tnGuc+dIs8zDLPZINLzW+Q66rclHcyx/77D/y0fxpceNNRGa758S82zc/wuY/d0h1b9lNqsKoO7rKOWVP9s2u24T3xawjT0Vw+Vts5vJ50u6jfoE/Z57yZnfq7bvhhtkP4LL+XcVs7BEUwtpX5Fbu8iVKRrYYNcuiivnsmZDbtWbr0SkrF0WWn6ZqTb8ZIjcPR43POF9M35ZMMHV7nLfU07z3evH6H5LJIm2vQbDT1nUUHAIQgIA7gaplT5GLTq4sFUuVlWOKHilHFy0mRQoWErOVp1lGtcUTQiOGq72h7xnff3vI1zKbmwmzbLXS8eUj4m3KY26uihUuGimLGUbf7i3TMhtWbdy2WZZ44jzPm1i2cN0ad6OVpUSwlTkUcyAAAQhAQCcBBFunX7EKAhCAAASUEUCwlTkUcyAAAQhAQCcBBFunX7EKAhCAAASUEUCwlTkUcyAAAQhAQCcBBFunX7EKAhCAAASUEUCwlTkUcyAAAQhAQCcBBFunX7EKAhCAAASUEUCwlTkUcyAAAQhAQCcBBFunX7EKAhCAAASUEUCwlTkUcyAAAQhAQCcBBFunX7EKAhCAAASUEUCwlTkUcyAAAQhAQCcBBFunX7EKAhCAAASUEUCwlTkUcyAAAQhAQCcBBFunX7EKAhCAAASUEUCwlTkUcyAAAQhAQCcBBFunX7EKAhCAAASUEUCwlTkUcyAAAQhAQCcBBFunX7EKAhCAAASUEUCwlTkUcyAAAQhAQCcBBFunX7EKAhCAAASUEUCwlTkUcyAAAQhAQCcBBFunX7EKAhCAAASUEUCwlTkUcyAAAQhAQCcBBFunX7EKAhCAAASUEUCwlTkUcyAAAQhAQCcBBFunX7EKAhCAAASUEUCwlTkUcyAAAQhAQCcBBFunX7EKAhCAAASUEUCwlTkUcyAAAQhAQCcBBFunX7EKAhCAAASUEUCwlTkUcyAAAQhAQCcBBFunX7EKAhCAAASUEUCwlTkUcyAAAQhAQCcBBFunX7EKAhCAAASUEUCwlTkUcyAAAQhAQCcBBFunX7EKAhCAAASUEUCwlTkUcyAAAQhAQCcBBFunX7EKAhCAAASUEUCwlTkUcyAAAQhAQCcBBFunX7EKAhCAAASUEUCwlTkUcyAAAQhAQCcBBFunX7EKAhCAAASUEUCwlTkUcyAAAQhAQCcBBFunX7EKAhCAAASUEUCwlTkUcyAAAQhAQCcBBFunX7EKAhCAAASUEUCwlTkUcyAAAQhAQCcBBFunX7EKAhCAAASUEUCwlTkUcyAAAQhAQCcBBFunX7EKAhCAAASUEUCwlTkUcyAAAQhAQCcBBFunX7EKAhCAAASUEUCwlTkUcyAAAQhAQCcBBFunX7EKAhCAAASUEUCwlTkUcyAAAQhAQCcBBFunX7EKAhCAAASUEUCwlTkUcyAAAQhAQCcBBFunX7EKAhCAAASUEUCwlTkUcyAAAQhAQCcBBFunX7EKAhCAAASUEUCwlTkUcyAAAQhAQCcBBFunX7EKAhCAAASUEfgfFsk1oG5kFnYAAAAASUVORK5CYII=;" vertex="1" parent="1">
          <mxGeometry x="1230" y="-35" width="241" height="90.13" as="geometry" />
        </mxCell>
        <mxCell id="w9n8-tRTK-V_4dh_BGKR-18" value="Actor" style="shape=umlActor;verticalLabelPosition=bottom;verticalAlign=top;html=1;outlineConnect=0;" vertex="1" parent="1">
          <mxGeometry x="413.75" y="-1120" width="30" height="60" as="geometry" />
        </mxCell>
        <mxCell id="w9n8-tRTK-V_4dh_BGKR-19" value="" style="shape=flexArrow;endArrow=classic;html=1;" edge="1" parent="1" source="w9n8-tRTK-V_4dh_BGKR-18" target="aZHZSerqJfOUwA4PFhIk-24">
          <mxGeometry width="50" height="50" relative="1" as="geometry">
            <mxPoint x="620" y="-950" as="sourcePoint" />
            <mxPoint x="670" y="-1000" as="targetPoint" />
          </mxGeometry>
        </mxCell>
        <mxCell id="w9n8-tRTK-V_4dh_BGKR-20" value="Actor" style="shape=umlActor;verticalLabelPosition=bottom;verticalAlign=top;html=1;outlineConnect=0;" vertex="1" parent="1">
          <mxGeometry x="1091.25" y="570" width="30" height="60" as="geometry" />
        </mxCell>
        <mxCell id="w9n8-tRTK-V_4dh_BGKR-21" value="" style="shape=flexArrow;endArrow=classic;html=1;exitX=1;exitY=1;exitDx=0;exitDy=0;exitPerimeter=0;" edge="1" parent="1" source="aZHZSerqJfOUwA4PFhIk-36" target="w9n8-tRTK-V_4dh_BGKR-20">
          <mxGeometry width="50" height="50" relative="1" as="geometry">
            <mxPoint x="990" y="560" as="sourcePoint" />
            <mxPoint x="1040" y="510" as="targetPoint" />
          </mxGeometry>
        </mxCell>
      </root>
    </mxGraphModel>
  </diagram>
</mxfile>
